<svg xmlns="http://www.w3.org/2000/svg" xmlns:svg="http://www.w3.org/2000/svg" id="svg8" width="500" height="500" version="1.1" viewBox="0 0 132.292 132.292"><metadata id="metadata5"/><g id="layer1" transform="translate(0,-164.70832)"><path id="rect825" d="m 30.982452,190.81261 c -0.235249,0 -0.468027,0.01 -0.701152,0.0178 -8.740316,-0.30539 -17.071692,5.24216 -18.871314,14.0744 L 1.1345322,255.33714 c -1.36201325,6.68451 3.9993618,12.40266 12.4857998,14.67659 8.486442,2.27394 15.935033,0.16258 18.151225,-6.46735 l 8.496917,-18.26605 a 11.529794,11.529794 0 0 0 4.434127,0.8905 11.529794,11.529794 0 0 0 7.4971,-2.78814 h 27.879437 a 11.529794,11.529794 0 0 0 7.509926,2.78814 11.529794,11.529794 0 0 0 4.431076,-0.89721 l 8.49997,18.27276 c 2.21619,6.62993 9.66476,8.74129 18.15122,6.46735 8.48644,-2.27393 13.8478,-7.99208 12.4858,-14.67659 l -10.27545,-50.43242 c -1.79962,-8.83224 -10.131,-14.37979 -18.87131,-14.0744 -0.23313,-0.008 -0.46591,-0.0178 -0.70115,-0.0178 z m -5.29347,7.98327 h 8.510352 v 4.98564 l -4.126305,4.25518 -4.384047,-4.25518 z m 76.658528,0 a 4.027628,4.0276251 0 0 1 4.02736,4.02736 4.027628,4.0276251 0 0 1 -4.02736,4.02798 4.027628,4.0276251 0 0 1 -4.027365,-4.02798 4.027628,4.0276251 0 0 1 4.027365,-4.02736 z m -83.040375,6.38184 h 4.985647 l 4.255176,4.38406 -4.255176,4.1263 h -4.985647 z m 16.288401,0 h 4.985648 v 8.51036 h -4.985648 l -4.255175,-4.1263 z m 60.142309,0.22782 a 4.027628,4.0276251 0 0 1 4.027977,4.02736 4.027628,4.0276251 0 0 1 -4.027977,4.02737 4.027628,4.0276251 0 0 1 -4.027364,-4.02737 4.027628,4.0276251 0 0 1 4.027364,-4.02736 z m 13.219325,0 a 4.0276277,4.0276251 0 0 1 4.02736,4.02736 4.0276277,4.0276251 0 0 1 -4.02736,4.02737 4.0276277,4.0276251 0 0 1 -4.02797,-4.02737 4.0276277,4.0276251 0 0 1 4.02797,-4.02736 z m -78.884141,5.42356 4.126305,4.25518 v 4.98565 h -8.510352 v -4.98565 z m 72.274481,1.1855 a 4.027628,4.0276251 0 0 1 4.02736,4.02796 4.027628,4.0276251 0 0 1 -4.02736,4.02737 4.027628,4.0276251 0 0 1 -4.027365,-4.02737 4.027628,4.0276251 0 0 1 4.027365,-4.02796 z m -57.644909,13.10694 a 9.5195159,9.5195159 0 0 1 9.519942,9.51933 9.5195159,9.5195159 0 0 1 -9.519942,9.51932 9.5195159,9.5195159 0 0 1 -9.519328,-9.51932 9.5195159,9.5195159 0 0 1 9.519328,-9.51933 z m 42.886463,0 a 9.5195159,9.5195159 0 0 1 9.519329,9.51933 9.5195159,9.5195159 0 0 1 -9.519329,9.51932 9.5195159,9.5195159 0 0 1 -9.519941,-9.51932 9.5195159,9.5195159 0 0 1 9.519941,-9.51933 z m -42.886463,1.34001 a 8.1793301,8.1793301 0 0 0 -8.17932,8.17932 8.1793301,8.1793301 0 0 0 8.17932,8.17932 8.1793301,8.1793301 0 0 0 8.17932,-8.17932 8.1793301,8.1793301 0 0 0 -8.17932,-8.17932 z m 42.886463,0 a 8.1793301,8.1793301 0 0 0 -8.17932,8.17932 8.1793301,8.1793301 0 0 0 8.17932,8.17932 8.1793301,8.1793301 0 0 0 8.17932,-8.17932 8.1793301,8.1793301 0 0 0 -8.17932,-8.17932 z" style="opacity:1;fill:#000;fill-opacity:1;stroke:none;stroke-width:5.90947962;stroke-linecap:square;stroke-linejoin:round;stroke-miterlimit:4.30000019;stroke-dasharray:none;stroke-opacity:1;paint-order:markers stroke fill"/></g></svg>