<svg xmlns="http://www.w3.org/2000/svg" xmlns:svg="http://www.w3.org/2000/svg" id="svg8" width="500" height="500" version="1.1" viewBox="0 0 132.292 132.292"><defs id="defs2"><rect id="rect8511" width="57.598" height="89.311" x="55.575" y="30.16"/><rect id="rect23850" width="463.955" height="453.971" x="149.548" y="177.661"/><rect id="rect5407" width="361.721" height="326.916" x="147.252" y="156.083"/></defs><metadata id="metadata5"/><g id="layer1" transform="translate(0,-164.70832)"><path id="path14139" d="M 248.79297,63.761719 A 186.24153,186.24153 0 0 0 63.759766,250.80469 186.24153,186.24153 0 0 0 250.40234,436.24023 186.24153,186.24153 0 0 0 436.24219,250 l -0.008,-1.60938 A 186.24153,186.24153 0 0 0 248.79297,63.761719 Z m -4.44336,50.359371 c 35.72417,0 62.092,6.80486 79.10351,20.41407 17.13303,13.60921 25.69922,30.7416 25.69922,51.39843 0,12.02957 -3.40242,23.26883 -10.20703,33.71875 -5.10345,7.77669 -13.12262,15.31092 -24.05859,22.60157 14.45978,6.92611 25.21409,16.09947 32.26172,27.52148 7.16913,11.42202 10.7539,24.05988 10.7539,37.91211 0,13.36619 -3.09982,25.88184 -9.29687,37.54688 -6.07554,11.54352 -13.60781,20.4744 -22.59961,26.79296 -8.87029,6.31857 -19.98928,10.93531 -33.35547,13.85157 -13.24468,3.03777 -27.40141,4.55664 -42.46875,4.55664 -28.31202,0 -49.94089,-3.34035 -64.88672,-10.02344 -14.94583,-6.68309 -26.30729,-16.52569 -34.08398,-29.52734 -7.77669,-13.00166 -11.66406,-27.52308 -11.66406,-43.5625 0,-15.6749 3.64489,-28.91992 10.93554,-39.73438 7.29065,-10.93597 18.5299,-19.37995 33.71875,-25.33398 -11.66503,-6.19705 -20.16915,-13.12412 -25.51562,-20.7793 -7.29065,-10.44993 -10.9375,-22.47868 -10.9375,-36.08789 0,-22.35799 10.51183,-40.64457 31.5332,-54.86133 16.40396,-10.93597 38.09296,-16.4043 65.06836,-16.4043 z m 3.64453,45.20118 c -8.9918,0 -16.34173,2.85539 -22.05273,8.5664 -5.5895,5.5895 -8.38477,12.88125 -8.38477,21.87305 0,9.23482 2.8554,16.70696 8.56641,22.41797 5.83252,5.58949 13.54908,8.38476 23.14843,8.38476 8.50576,0 15.49296,-2.79527 20.96094,-8.38476 5.46799,-5.5895 8.20117,-12.81917 8.20117,-21.68946 0,-9.23482 -2.8554,-16.70696 -8.5664,-22.41796 -5.71101,-5.83252 -13.00276,-8.75 -21.87305,-8.75 z m 0,104.98632 c -9.23482,0 -17.31412,3.6449 -24.24023,10.93555 -6.80461,7.29065 -10.20703,17.13324 -10.20703,29.52734 0,11.78655 3.58476,21.4468 10.7539,28.98047 7.16914,7.41216 15.37065,11.11719 24.60547,11.11719 8.87029,0 16.82933,-3.76711 23.87695,-11.30078 7.04763,-7.65518 10.57227,-17.31543 10.57227,-28.98047 0,-11.78655 -3.58477,-21.44485 -10.75391,-28.97851 -7.04762,-7.53367 -15.25109,-11.30079 -24.60742,-11.30079 z" transform="matrix(0.26458333,0,0,0.26458333,0,164.70832)" style="fill:#000;fill-opacity:1;stroke:none;stroke-width:99.9938"/></g></svg>