<svg xmlns="http://www.w3.org/2000/svg" xmlns:svg="http://www.w3.org/2000/svg" id="svg8" width="500" height="500" version="1.1" viewBox="0 0 132.292 132.292"><defs id="defs2"><rect id="rect8511" width="57.598" height="89.311" x="55.575" y="30.16"/><rect id="rect23850" width="463.955" height="453.971" x="149.548" y="177.661"/><rect id="rect5407" width="361.721" height="326.916" x="147.252" y="156.083"/></defs><metadata id="metadata5"/><g id="layer1" transform="translate(0,-164.70832)"><path id="path14139" d="M 248.79297,63.761719 A 186.24153,186.24153 0 0 0 63.759766,250.80469 186.24153,186.24153 0 0 0 250.40234,436.24023 186.24153,186.24153 0 0 0 436.24219,250 l -0.008,-1.60938 A 186.24153,186.24153 0 0 0 248.79297,63.761719 Z M 250,110.12109 c 34.8736,0 60.08724,6.5003 75.64062,19.50196 15.55339,13.00165 23.33008,29.34454 23.33008,49.02929 0,11.54353 -3.15995,21.99328 -9.47851,31.34961 -6.31856,9.35633 -15.8566,17.55785 -28.61524,24.60547 10.32842,2.55173 18.22733,5.52934 23.69532,8.93164 8.87028,5.46799 15.73527,12.69766 20.5957,21.68946 4.98194,8.87028 7.47265,19.50238 7.47265,31.89648 10e-6,15.55338 -4.07166,30.49962 -12.21289,44.83789 -8.14122,14.21676 -19.86542,25.21354 -35.17578,32.99023 -15.31036,7.65519 -35.42036,11.48243 -60.33007,11.48243 -24.30216,0 -43.50241,-2.8554 -57.59766,-8.56641 -13.97374,-5.71101 -25.5156,-14.03473 -34.62891,-24.9707 -8.9918,-11.05749 -15.91886,-24.90966 -20.77929,-41.55664 L 216.09766,301.5 c 2.91626,14.94583 7.41274,25.33545 13.48828,31.16797 6.19705,5.71101 14.03387,8.56641 23.51172,8.56641 9.96388,0 18.22748,-3.6449 24.78906,-10.93555 6.68309,-7.29065 10.02539,-17.01298 10.02539,-29.16406 0,-12.39411 -3.22008,-21.99227 -9.66016,-28.79688 -6.31856,-6.8046 -14.94684,-10.20703 -25.88281,-10.20703 -5.83252,0 -13.85169,1.45874 -24.05859,4.375 l 3.82812,-53.04102 c 4.13137,0.60756 7.35145,0.91211 9.66016,0.91211 9.72086,0 17.80016,-3.09787 24.24023,-9.29492 6.56159,-6.19705 9.8418,-13.54893 9.8418,-22.05469 0,-8.14122 -2.42863,-14.64152 -7.28906,-19.50195 -4.86044,-4.86043 -11.54503,-7.29102 -20.05078,-7.29101 -8.74878,0 -15.85624,2.67305 -21.32422,8.01953 -5.46799,5.22496 -9.17497,14.4604 -11.11914,27.70507 l -70.17188,-12.57812 c 5.83252,-22.35799 17.01164,-39.49038 33.53711,-51.39844 C 196.10987,116.07436 219.6223,110.12109 250,110.12109 Z" transform="matrix(0.26458333,0,0,0.26458333,0,164.70832)" style="fill:#000;fill-opacity:1;stroke:none;stroke-width:99.9938"/></g></svg>