<svg xmlns="http://www.w3.org/2000/svg" xmlns:svg="http://www.w3.org/2000/svg" id="svg8" width="500" height="500" version="1.1" viewBox="0 0 132.292 132.292"><defs id="defs2"><rect id="rect8511" width="57.598" height="89.311" x="55.575" y="30.16"/><rect id="rect23850" width="463.955" height="453.971" x="149.548" y="177.661"/><rect id="rect5407" width="361.721" height="326.916" x="147.252" y="156.083"/></defs><metadata id="metadata5"/><g id="layer1" transform="translate(0,-164.70832)"><path id="path71035" d="m 435.71289,64.169922 c 0,0 -30.66579,-8.646576 -185.65841,142.743978 C 93.682502,53.855376 64.169922,64.345703 64.169922,64.345703 c 0,0 -8.6487,30.671099 142.747308,185.664867 C 54.422167,405.91538 64.287109,435.83008 64.287109,435.83008 c 0,0 30.288449,9.25011 185.729901,-142.68539 155.90171,152.49071 185.81307,142.62679 185.81307,142.62679 0,0 9.25147,-30.28571 -142.67895,-185.72345 C 446.2044,93.679815 435.71289,64.169922 435.71289,64.169922 Z" transform="matrix(0.26458333,0,0,0.26458333,0,164.70832)" style="stroke-width:4.08423;stroke-linecap:round"/></g></svg>