<svg xmlns="http://www.w3.org/2000/svg" xmlns:svg="http://www.w3.org/2000/svg" id="svg8" width="500" height="500" version="1.1" viewBox="0 0 132.292 132.292"><defs id="defs2"><rect id="rect8511" width="57.598" height="89.311" x="55.575" y="30.16"/><rect id="rect23850" width="463.955" height="453.971" x="149.548" y="177.661"/><rect id="rect5407" width="361.721" height="326.916" x="147.252" y="156.083"/></defs><metadata id="metadata5"/><g id="layer1" transform="translate(0,-164.70832)"><path id="path14139" d="M 248.79297,63.761719 A 186.24153,186.24153 0 0 0 63.759766,250.80469 186.24153,186.24153 0 0 0 250.40234,436.24023 186.24153,186.24153 0 0 0 436.24219,250 l -0.008,-1.60938 A 186.24153,186.24153 0 0 0 248.79297,63.761719 Z m 3.0293,38.359371 c 26.12482,0 46.41716,2.97566 60.87695,8.92969 14.58129,5.95403 26.00289,15.12934 34.26562,27.52344 8.38425,12.27259 12.57618,26.06269 12.57618,41.37305 0,16.28244 -4.79909,31.83583 -14.39844,46.66015 -9.47784,14.82432 -26.79258,31.10708 -51.94531,48.84766 -14.94583,10.32842 -24.97077,17.55808 -30.07422,21.68945 -4.98195,4.13137 -10.87509,9.53956 -17.67969,16.22266 h 115.92187 v 60.51172 H 138.63477 c 2.55172,-21.99346 10.26829,-42.65049 23.14843,-61.97071 13.00166,-19.44172 37.30359,-42.34504 72.90625,-68.71289 21.75044,-16.16093 35.66274,-28.43411 41.73828,-36.81836 6.07554,-8.38424 9.11329,-16.34328 9.11329,-23.87695 0,-8.14122 -3.03775,-15.06829 -9.11329,-20.7793 -5.95402,-5.83252 -13.4863,-8.74804 -22.59961,-8.74804 -9.47784,0 -17.25453,2.97761 -23.33007,8.93164 -5.95403,5.95403 -9.96362,16.46391 -12.0293,31.53125 l -74.36523,-6.01367 c 2.91625,-20.89986 8.26237,-37.18262 16.03906,-48.84766 7.77669,-11.78655 18.71334,-20.77951 32.80859,-26.97656 14.21677,-6.31857 33.83987,-9.47657 58.8711,-9.47657 z" transform="matrix(0.26458333,0,0,0.26458333,0,164.70832)" style="fill:#000;fill-opacity:1;stroke:none;stroke-width:99.9938"/></g></svg>