<svg xmlns="http://www.w3.org/2000/svg" xmlns:svg="http://www.w3.org/2000/svg" id="svg8" width="500" height="500" version="1.1" viewBox="0 0 132.292 132.292"><defs id="defs2"><rect id="rect8511" width="384.08" height="465.787" x="55.575" y="30.16"/><rect id="rect23850" width="463.955" height="453.971" x="149.548" y="177.661"/><rect id="rect5407" width="361.721" height="326.916" x="147.252" y="156.083"/></defs><metadata id="metadata5"/><g id="layer1" transform="translate(0,-164.70832)"><path id="path14139" d="M 248.79297,63.761719 A 186.24153,186.24153 0 0 0 63.759766,250.80469 186.24153,186.24153 0 0 0 250.40234,436.24023 186.24153,186.24153 0 0 0 436.24219,250 l -0.008,-1.60938 A 186.24153,186.24153 0 0 0 248.79297,63.761719 Z M 210.35742,123.3457 h 79.28516 v 60.87696 l -15.31055,122.30078 h -49.0293 L 210.35742,184.22266 Z m 2.73438,201.76953 h 74 v 65.4336 h -74 z" transform="matrix(0.26458333,0,0,0.26458333,0,164.70832)" style="fill:#000;fill-opacity:1;stroke:none;stroke-width:99.9938"/></g></svg>