<svg xmlns="http://www.w3.org/2000/svg" xmlns:svg="http://www.w3.org/2000/svg" id="svg8" width="500" height="500" version="1.1" viewBox="0 0 132.292 132.292"><defs id="defs2"><rect id="rect23850" width="463.955" height="453.971" x="149.548" y="177.661"/><rect id="rect5407" width="361.721" height="326.916" x="147.252" y="156.083"/></defs><metadata id="metadata5"/><g id="layer1" transform="translate(0,-164.70832)"><path id="path1474" d="m 65.941193,178.4124 c -17.43098,0.11291 -31.480688,14.3152 -31.405316,31.74638 0,0 -0.878546,11.63591 8.042402,24.18003 8.920948,12.54412 18.053703,48.73387 23.567553,48.73387 5.250006,0 14.623484,-36.28986 23.510711,-48.64602 8.887227,-12.35617 8.098705,-24.67767 8.099764,-24.40431 l -0.0011,-0.27336 C 97.604645,192.31835 83.372115,178.29941 65.941193,178.4124 Z m 0.12764,18.38027 c 6.55982,-0.0425 11.915937,5.23337 11.972396,11.79308 l 5.29e-4,0.10232 c 1.25e-4,6.5599 -5.31019,11.88178 -11.870076,11.89591 -6.559727,0.0141 -11.892864,-5.28455 -11.921236,-11.84423 -0.02846,-6.55977 5.258708,-11.9045 11.818398,-11.94708 z" style="stroke-width:26.4567"/></g></svg>