<svg xmlns="http://www.w3.org/2000/svg" xmlns:svg="http://www.w3.org/2000/svg" id="svg8" width="500" height="500" version="1.1" viewBox="0 0 132.292 132.292"><defs id="defs2"><rect id="rect8511" width="57.598" height="89.311" x="55.575" y="30.16"/><rect id="rect23850" width="463.955" height="453.971" x="149.548" y="177.661"/><rect id="rect5407" width="361.721" height="326.916" x="147.252" y="156.083"/></defs><metadata id="metadata5"/><g id="layer1" transform="translate(0,-164.70832)"><path id="path67241" d="m 242.56641,144.36523 c -39.45597,-0.19918 -62.07032,19.34766 -62.07032,19.34766 C 98.055188,185.80287 60.459151,222.35037 60.458984,250 c -1.7e-4,28.59458 69.319056,86.28906 120.037106,86.28906 0,0 31.76438,27.45578 85.68555,16.95508 L 247.0293,333.88477 c 28.39575,-4.15703 106.55689,-39.23231 117.08789,-73.54297 0,0 50.80595,47.86365 75.42383,47.14062 0,0 -9.13056,-41.10149 -28.92383,-57.48242 19.79327,-16.38093 28.92383,-57.48242 28.92383,-57.48242 -24.61788,-0.72306 -75.42383,47.14062 -75.42383,47.14062 -10.531,-34.3107 -88.69214,-69.38395 -117.08789,-73.54101 l 19.15234,-19.35938 c -8.42519,-1.64073 -16.30856,-2.35573 -23.61523,-2.39258 z M 134.0918,204.44531 a 14.248365,14.248365 0 0 1 14.33984,14.125 v 0.1211 a 14.248365,14.248365 0 0 1 -14.21484,14.25 14.248365,14.248365 0 0 1 -14.2793,-14.1875 14.248365,14.248365 0 0 1 14.1543,-14.3086 z m 42.14453,0.22852 c 0,0 19.12304,28.92748 19.12305,45.32617 0,16.39869 -19.12305,45.32617 -19.12305,45.32617 12.26995,-45.79211 0,-90.65234 0,-90.65234 z m 40,13.0039 c 0,0 19.12304,20.62811 19.12305,32.32227 0,11.69416 -19.12305,32.32227 -19.12305,32.32227 12.26995,-32.65505 0,-64.64454 0,-64.64454 z" transform="matrix(0.26458333,0,0,0.26458333,0,164.70832)" style="fill:#000;fill-opacity:1;stroke:none;stroke-width:1.19904;stroke-linecap:butt;stroke-linejoin:miter;stroke-miterlimit:4;stroke-dasharray:none;stroke-opacity:1"/></g></svg>