<svg xmlns="http://www.w3.org/2000/svg" xmlns:svg="http://www.w3.org/2000/svg" id="svg8" width="500" height="500" version="1.1" viewBox="0 0 132.292 132.292"><defs id="defs2"><rect id="rect8511" width="57.598" height="89.311" x="55.575" y="30.16"/><rect id="rect23850" width="463.955" height="453.971" x="149.548" y="177.661"/><rect id="rect5407" width="361.721" height="326.916" x="147.252" y="156.083"/></defs><metadata id="metadata5"/><g id="layer1" transform="translate(0,-164.70832)"><path id="rect59423" d="m 27.242109,179.71309 c -2.380448,0 -4.296894,1.91645 -4.296894,4.2969 v 93.68834 c 0,2.38045 1.916446,4.29689 4.296894,4.29689 2.380448,0 4.296894,-1.91644 4.296894,-4.29689 v -39.99394 c 1.107445,0.93073 3.94203,3.10172 8.039304,4.72477 5.759204,2.28139 12.193047,2.66268 20.808031,0.5364 8.159888,-2.01396 17.135481,-6.07918 25.702824,-8.05945 8.975534,-2.07463 16.318178,-1.50687 23.252848,2.33526 0,0 0.01,-31.83438 0,-47.78158 0,0 -3.24181,-2.33108 -8.56537,-3.51193 -5.833126,-1.29388 -12.114165,-0.73709 -20.803383,1.96215 -8.084568,2.51141 -17.208095,6.56628 -25.702307,7.76593 -8.713055,1.23057 -15.977717,-0.59298 -22.731947,-5.80223 v -5.86372 c 0,-2.38045 -1.916446,-4.2969 -4.296894,-4.2969 z" style="fill:#000;fill-opacity:1;stroke:none;stroke-width:10;stroke-linecap:round;stroke-miterlimit:4;stroke-dasharray:none;stroke-opacity:1"/></g></svg>