<svg xmlns="http://www.w3.org/2000/svg" xmlns:svg="http://www.w3.org/2000/svg" id="svg8" width="500" height="500" version="1.1" viewBox="0 0 132.292 132.292"><defs id="defs2"><rect id="rect8511" width="57.598" height="89.311" x="55.575" y="30.16"/><rect id="rect23850" width="463.955" height="453.971" x="149.548" y="177.661"/><rect id="rect5407" width="361.721" height="326.916" x="147.252" y="156.083"/></defs><metadata id="metadata5"/><g id="layer1" transform="translate(0,-164.70832)"><path id="rect382" d="M 24.55199 179.90119 C 20.188995 179.90119 16.676501 183.41367 16.676501 187.77668 L 16.676501 273.93163 C 16.676501 278.2946 20.188995 281.80712 24.55199 281.80712 L 107.73968 281.80712 C 112.10265 281.80712 115.61517 278.2946 115.61517 273.93163 L 115.61517 202.66259 L 92.262069 179.90119 L 74.987154 179.90119 L 74.987154 210.0084 L 29.064893 210.0084 L 29.064893 179.90119 L 24.55199 179.90119 z M 57.035278 185.48173 L 57.035278 206.69956 L 71.917574 206.69956 L 71.917574 185.48173 L 57.035278 185.48173 z M 66.145833 222.80555 C 75.260335 222.80567 82.649086 230.19281 82.649219 239.30532 C 82.649092 248.41783 75.260339 255.80497 66.145833 255.80509 C 57.031328 255.80497 49.642575 248.41783 49.642448 239.30532 C 49.642581 230.19281 57.031332 222.80567 66.145833 222.80555 z" style="fill:#000;fill-opacity:.992331;stroke:none;stroke-width:1.07652;stroke-linecap:round;paint-order:markers stroke fill"/></g></svg>