<svg xmlns="http://www.w3.org/2000/svg" xmlns:svg="http://www.w3.org/2000/svg" id="svg8" width="500" height="500" version="1.1" viewBox="0 0 132.292 132.292"><defs id="defs2"><rect id="rect8511" width="57.598" height="89.311" x="55.575" y="30.16"/><rect id="rect23850" width="463.955" height="453.971" x="149.548" y="177.661"/><rect id="rect5407" width="361.721" height="326.916" x="147.252" y="156.083"/></defs><metadata id="metadata5"/><g id="layer1" transform="translate(0,-164.70832)"><path id="path14139" d="M 248.79297,63.761719 A 186.24153,186.24153 0 0 0 63.759766,250.80469 186.24153,186.24153 0 0 0 250.40234,436.24023 186.24153,186.24153 0 0 0 436.24219,250 l -0.008,-1.60938 A 186.24153,186.24153 0 0 0 248.79297,63.761719 Z m -83.05469,89.707031 a 40.362675,40.362675 0 0 1 40.62305,40.01367 l 0.002,0.34766 a 40.362675,40.362675 0 0 1 -40.27539,40.36328 40.362675,40.362675 0 0 1 -40.44922,-40.18945 40.362675,40.362675 0 0 1 40.09961,-40.53516 z m 168,0 a 40.362676,40.362676 0 0 1 40.62305,40.01367 l 0.002,0.34766 a 40.362676,40.362676 0 0 1 -40.27539,40.36328 40.362676,40.362676 0 0 1 -40.45117,-40.18945 40.362676,40.362676 0 0 1 40.10156,-40.53516 z m -84.12695,121.36914 c 39.71028,-0.12174 80.1469,12.16644 108.05664,40.07617 a 18.897638,18.897638 0 0 1 0,26.72266 18.897638,18.897638 0 0 1 -26.72266,0 c -18.57906,-18.57906 -49.64593,-29.10066 -81.21679,-29.00391 -31.57087,0.0968 -62.53786,10.86599 -80.67579,29.00391 a 18.897638,18.897638 0 0 1 -26.72265,0 18.897638,18.897638 0 0 1 0,-26.72266 c 27.47671,-27.47671 67.57096,-39.95447 107.28125,-40.07617 z" transform="matrix(0.26458333,0,0,0.26458333,0,164.70832)" style="fill:#000;fill-opacity:1;stroke:none;stroke-width:99.9938"/></g></svg>