<svg xmlns="http://www.w3.org/2000/svg" xmlns:svg="http://www.w3.org/2000/svg" id="svg8" width="500" height="500" version="1.1" viewBox="0 0 132.292 132.292"><defs id="defs2"><rect id="rect8511" width="57.598" height="89.311" x="55.575" y="30.16"/><rect id="rect23850" width="463.955" height="453.971" x="149.548" y="177.661"/><rect id="rect5407" width="361.721" height="326.916" x="147.252" y="156.083"/></defs><metadata id="metadata5"/><g id="layer1" transform="translate(0,-164.70832)"><path id="rect72418" d="m 229.72266,58.867188 c -84.59337,0 -152.697269,68.101962 -152.697269,152.695312 0,52.76651 26.501509,99.11578 66.970699,126.52344 v 48.10742 c 0,30.43582 24.49974,54.93945 54.93555,54.93945 h 102.13672 c 30.43581,0 54.93555,-24.50363 54.93555,-54.93945 v -48.10742 c 40.47004,-27.40755 66.9707,-73.75628 66.9707,-126.52344 0,-84.59335 -68.1039,-152.695312 -152.69727,-152.695312 z M 159.71484,163.24414 a 44.082115,44.082115 0 0 1 44.36524,43.70117 l 0.002,0.38086 a 44.082115,44.082115 0 0 1 -43.98633,44.08203 44.082115,44.082115 0 0 1 -44.17773,-43.89258 44.082115,44.082115 0 0 1 43.79687,-44.27148 z m 180,0 a 44.082114,44.082114 0 0 1 44.36524,43.70117 l 0.002,0.38086 a 44.082114,44.082114 0 0 1 -43.98633,44.08203 44.082114,44.082114 0 0 1 -44.17773,-43.89258 44.082114,44.082114 0 0 1 43.79687,-44.27148 z" transform="matrix(0.26458333,0,0,0.26458333,0,164.70832)" style="fill:#000;fill-opacity:1;stroke:none;stroke-width:1.20923;stroke-linecap:round;stroke-miterlimit:4;stroke-dasharray:none;stroke-opacity:1"/></g></svg>