<svg xmlns="http://www.w3.org/2000/svg" xmlns:svg="http://www.w3.org/2000/svg" id="svg8" width="500" height="500" version="1.1" viewBox="0 0 132.292 132.292"><defs id="defs2"><rect id="rect8511" width="57.598" height="89.311" x="55.575" y="30.16"/><rect id="rect23850" width="463.955" height="453.971" x="149.548" y="177.661"/><rect id="rect5407" width="361.721" height="326.916" x="147.252" y="156.083"/></defs><metadata id="metadata5"/><g id="layer1" transform="translate(0,-164.70832)"><path id="path14139" d="M 248.79297,63.761719 A 186.24153,186.24153 0 0 0 63.759766,250.80469 186.24153,186.24153 0 0 0 250.40234,436.24023 186.24153,186.24153 0 0 0 436.24219,250 l -0.008,-1.60938 A 186.24153,186.24153 0 0 0 248.79297,63.761719 Z m -76.71094,58.916011 h 176.25 v 59.23633 H 228.94922 l -6.38086,40.09766 c 8.26273,-3.88835 16.40411,-6.80388 24.42383,-8.74805 8.14122,-1.94417 16.16039,-2.91601 24.05859,-2.91601 26.73238,0 48.42333,8.07929 65.07031,24.24023 16.64698,16.16094 24.97071,36.51537 24.97071,61.06055 0,17.25453 -4.31414,33.8399 -12.94141,49.75781 -8.50576,15.91791 -20.65672,28.06888 -36.45312,36.45313 -15.6749,8.38424 -35.7849,12.57617 -60.33008,12.57617 -17.61907,0 -32.74765,-1.63913 -45.38477,-4.91993 -12.51561,-3.4023 -23.20783,-8.38568 -32.07812,-14.94726 -8.74878,-6.68309 -15.85819,-14.21536 -21.32618,-22.59961 -5.46798,-8.38425 -10.02459,-18.834 -13.66992,-31.34961 l 75.09375,-8.20312 c 1.82267,12.02956 6.07667,21.20487 12.75977,27.52343 6.68309,6.19705 14.64213,9.29493 23.87695,9.29493 10.32842,-10e-6 18.83253,-3.88933 25.51563,-11.66602 6.8046,-7.8982 10.20703,-19.6224 10.20703,-35.17578 0,-15.91792 -3.40243,-27.58394 -10.20703,-34.9961 -6.80461,-7.41215 -15.85575,-11.11718 -27.15625,-11.11718 -7.16914,0 -14.09621,1.76134 -20.7793,5.28515 -4.98194,2.55173 -10.45027,7.16847 -16.4043,13.85157 l -63.24609,-9.11329 z" transform="matrix(0.26458333,0,0,0.26458333,0,164.70832)" style="fill:#000;fill-opacity:1;stroke:none;stroke-width:99.9938"/></g></svg>