<svg xmlns="http://www.w3.org/2000/svg" xmlns:svg="http://www.w3.org/2000/svg" id="svg8" width="500" height="500" version="1.1" viewBox="0 0 132.292 132.292"><defs id="defs2"><rect id="rect8511" width="57.598" height="89.311" x="55.575" y="30.16"/><rect id="rect23850" width="463.955" height="453.971" x="149.548" y="177.661"/><rect id="rect5407" width="361.721" height="326.916" x="147.252" y="156.083"/></defs><metadata id="metadata5"/><g id="layer1" transform="translate(0,-164.70832)"><path id="path14139" d="M 248.79297,63.761719 A 186.24153,186.24153 0 0 0 63.759766,250.80469 186.24153,186.24153 0 0 0 250.40234,436.24023 186.24153,186.24153 0 0 0 436.24219,250 l -0.008,-1.60938 A 186.24153,186.24153 0 0 0 248.79297,63.761719 Z m -107.9707,62.916011 h 216.71484 v 50.12305 c -18.83417,17.01151 -34.56991,35.4203 -47.20703,55.22656 -15.31036,24.05914 -27.4012,50.85179 -36.27149,80.37891 -7.04762,22.96554 -11.78658,50.12287 -14.21679,81.47266 h -74 c 5.83252,-43.62238 15.00782,-80.19749 27.52343,-109.72461 12.51562,-29.52713 32.32107,-61.11886 59.41797,-94.77735 H 140.82227 Z" transform="matrix(0.26458333,0,0,0.26458333,0,164.70832)" style="fill:#000;fill-opacity:1;stroke:none;stroke-width:99.9938"/></g></svg>