<svg xmlns="http://www.w3.org/2000/svg" xmlns:svg="http://www.w3.org/2000/svg" id="svg8" width="500" height="500" version="1.1" viewBox="0 0 132.292 132.292"><metadata id="metadata5"/><g id="layer1" transform="translate(0,-164.70832)"><path id="rect2269" d="m 5.541872,202.48635 c -1.4287048,0 -2.578892,1.15018 -2.578892,2.57888 v 51.57785 c 0,1.4287 1.1501872,2.57888 2.578892,2.57888 H 126.7498 c 1.4287,0 2.57889,-1.15018 2.57889,-2.57888 v -51.57785 c 0,-1.4287 -1.15019,-2.57888 -2.57889,-2.57888 z m 2.5788919,5.15778 h 5.1577851 v 5.15778 H 8.1207639 Z m 15.6577031,0 h 5.157782 v 5.15778 h -5.157782 z m 7.736674,0 h 5.157785 v 5.15778 h -5.157785 z m 7.736676,0 h 5.157784 v 5.15778 h -5.157784 z m 7.736676,0 h 5.157785 v 5.15778 h -5.157785 z m 12.89446,0 h 5.157784 v 5.15778 h -5.157784 z m 7.736677,0 h 5.157782 v 5.15778 H 67.61963 Z m 7.736674,0 h 5.157785 v 5.15778 h -5.157785 z m 7.736676,0 h 5.157784 v 5.15778 H 83.09298 Z m 12.89446,0 h 5.15778 v 5.15778 h -5.15778 z m 7.73669,0 h 5.15777 v 5.15778 h -5.15777 z m 7.73667,0 h 5.15778 v 5.15778 h -5.15778 z m 7.73668,0 h 5.15778 v 5.15778 h -5.15778 z M 8.1207639,217.9597 h 5.1577851 v 5.15778 H 8.1207639 Z m 7.7366761,0 h 5.157784 v 5.15778 H 15.85744 Z m 7.736677,0 h 5.157782 v 5.15778 h -5.157782 z m 7.736675,0 h 5.157784 v 5.15778 h -5.157784 z m 7.736677,0 h 5.157782 v 5.15778 h -5.157782 z m 7.736674,0 h 5.157785 v 5.15778 h -5.157785 z m 7.736676,0 h 5.157784 v 5.15778 h -5.157784 z m 7.736676,0 h 5.157784 v 5.15778 h -5.157784 z m 7.736676,0 h 5.157784 v 5.15778 h -5.157784 z m 7.736676,0 h 5.157784 v 5.15778 h -5.157784 z m 7.736676,0 h 5.157784 v 5.15778 h -5.157784 z m 7.736675,0 h 5.157789 v 5.15778 h -5.157789 z m 7.736682,0 h 5.15778 v 5.15778 h -5.15778 z m 7.92102,0 h 15.47336 v 5.15778 H 108.8819 Z M 8.1207639,225.69637 H 18.436332 v 5.15778 H 8.1207639 Z m 12.8944601,0 h 5.157785 v 5.15778 h -5.157785 z m 7.736675,0 h 5.157785 v 5.15778 h -5.157785 z m 7.736677,0 h 5.157784 v 5.15778 h -5.157784 z m 7.736675,0 h 5.157785 v 5.15778 h -5.157785 z m 7.736677,0 h 5.157784 v 5.15778 h -5.157784 z m 7.736675,0 h 5.157784 v 5.15778 h -5.157784 z m 7.736676,0 h 5.157784 v 5.15778 h -5.157784 z m 7.736676,0 h 5.157783 v 5.15778 h -5.157783 z m 7.736676,0 h 5.157784 v 5.15778 h -5.157784 z m 7.736676,0 h 5.157783 v 5.15778 h -5.157783 z m 7.73668,0 h 5.157783 v 5.15778 h -5.157783 z m 7.736673,0 h 5.15778 v 5.15778 h -5.15778 z m 7.92103,0 h 2.57889 7.73668 v 12.89445 h -7.73668 v -7.73667 h -2.57889 z M 8.1207639,233.43304 H 21.015224 v 5.15778 H 8.1207639 Z m 15.4733531,0 h 5.157782 v 5.15778 h -5.157782 z m 7.736675,0 h 5.157784 v 5.15778 h -5.157784 z m 7.736677,0 h 5.157782 v 5.15778 h -5.157782 z m 7.736674,0 h 5.157785 v 5.15778 h -5.157785 z m 7.736676,0 h 5.157784 v 5.15778 h -5.157784 z m 7.736676,0 h 5.157784 v 5.15778 h -5.157784 z m 7.736676,0 h 5.157784 v 5.15778 h -5.157784 z m 7.736676,0 h 5.157784 v 5.15778 h -5.157784 z m 7.736676,0 h 5.157784 v 5.15778 h -5.157784 z m 7.736675,0 h 5.157789 v 5.15778 h -5.157789 z m 7.736682,0 h 5.15778 v 5.15778 h -5.15778 z m 7.73668,0 h 5.15779 v 5.15778 h -5.15779 z M 8.1207639,241.16973 H 15.85744 v 5.15777 H 8.1207639 Z m 10.3155681,0 h 5.157785 v 5.15777 h -5.157785 z m 7.736677,0 h 5.157783 v 5.15777 h -5.157783 z m 7.736675,0 h 5.157785 v 5.15777 h -5.157785 z m 7.736676,0 h 5.157783 v 5.15777 H 41.64636 Z m 7.736676,0 h 5.157783 v 5.15777 h -5.157783 z m 7.736676,0 h 5.157783 v 5.15777 h -5.157783 z m 7.736675,0 h 5.157784 v 5.15777 h -5.157784 z m 7.736676,0 h 5.157784 v 5.15777 h -5.157784 z m 7.736675,0 h 5.157785 v 5.15777 h -5.157785 z m 7.736677,0 h 5.157783 v 5.15777 h -5.157783 z m 7.736675,0 h 5.15779 v 5.15777 h -5.15779 z m 7.92104,0 h 20.63113 v 5.15777 H 103.72413 Z M 8.1207639,248.9064 H 15.85744 v 5.15777 H 8.1207639 Z m 10.3155681,0 h 7.736677 v 5.15777 h -7.736677 z m 10.315567,0 h 7.736677 v 5.15777 h -7.736677 z m 10.31557,0 H 83.09298 v 5.15777 H 39.067469 Z m 46.604403,0 h 7.736677 v 5.15777 h -7.736677 z m 10.315568,0 h 7.73669 v 5.15777 h -7.73669 z m 10.31557,0 h 7.73668 v 5.15777 h -7.73668 z m 10.31557,0 h 7.73668 v 5.15777 h -7.73668 z" style="opacity:1;fill:#1b0b0b;fill-opacity:1;stroke:none;stroke-width:4.87349653;stroke-linecap:square;stroke-linejoin:round;stroke-miterlimit:4.30000019;stroke-dasharray:none;stroke-opacity:1;paint-order:markers stroke fill"/></g></svg>