<svg xmlns="http://www.w3.org/2000/svg" xmlns:svg="http://www.w3.org/2000/svg" id="svg8" width="500" height="500" version="1.1" viewBox="0 0 132.292 132.292"><metadata id="metadata5"/><g id="layer1" transform="translate(0,-164.70832)"><path id="rect2269" d="M 2.0508474,208.29484 C 0.9146793,208.29484 0,209.20952 0,210.34568 v 41.01695 c 0,1.13616 0.9146793,2.05084 2.0508474,2.05084 H 98.440669 c 1.136156,0 2.050841,-0.91468 2.050841,-2.05084 v -41.01695 c 0,-1.13616 -0.914685,-2.05084 -2.050841,-2.05084 z m 2.0508471,4.1017 H 8.20339 v 4.10169 H 4.1016945 Z m 12.4516875,0 h 4.101692 v 4.10169 h -4.101692 z m 6.152539,0 h 4.101695 v 4.10169 h -4.101695 z m 6.152541,0 h 4.101695 v 4.10169 h -4.101695 z m 6.152542,0 h 4.101695 v 4.10169 h -4.101695 z m 10.254236,0 h 4.101694 v 4.10169 H 45.26524 Z m 6.152543,0 h 4.101692 v 4.10169 h -4.101692 z m 6.152539,0 h 4.101695 v 4.10169 h -4.101695 z m 6.152541,0 h 4.101695 v 4.10169 h -4.101695 z m 10.254236,0 h 4.101691 v 4.10169 h -4.101691 z m 6.152552,0 h 4.101684 v 4.10169 h -4.101684 z m 6.152542,0 h 4.101685 v 4.10169 h -4.101685 z m 6.152542,0 h 4.101685 v 4.10169 H 92.434735 Z M 4.1016945,220.59992 H 8.20339 v 4.10169 H 4.1016945 Z m 6.1525415,0 h 4.101694 v 4.10169 h -4.101694 z m 6.152542,0 h 4.101692 v 4.10169 h -4.101693 z m 6.152541,0 h 4.101694 v 4.10169 h -4.101694 z m 6.152541,0 h 4.101694 v 4.10169 H 28.71186 Z m 6.152541,0 h 4.101694 v 4.10169 h -4.101694 z m 6.152541,0 h 4.101695 v 4.10169 h -4.101695 z m 6.152542,0 h 4.101694 v 4.10169 h -4.101694 z m 6.152541,0 h 4.101695 v 4.10169 h -4.101695 z m 6.152541,0 h 4.101695 v 4.10169 h -4.101695 z m 6.152543,0 h 4.101693 v 4.10169 h -4.101693 z m 6.15254,0 h 4.101698 v 4.10169 h -4.101698 z m 6.152546,0 h 4.101691 v 4.10169 h -4.101691 z m 6.29914,0 H 96.53642 v 4.10169 H 84.231335 Z m -80.1296405,6.15253 h 8.2033885 v 4.1017 H 4.1016945 Z m 10.2542355,0 h 4.101694 v 4.1017 H 14.35593 Z m 6.15254,0 h 4.101696 v 4.1017 H 20.50847 Z m 6.152543,0 h 4.101693 v 4.1017 h -4.101693 z m 6.152541,0 h 4.101695 v 4.1017 h -4.101695 z m 6.152541,0 h 4.101696 v 4.1017 h -4.101696 z m 6.152542,0 h 4.101694 v 4.1017 h -4.101694 z m 6.152541,0 h 4.101695 v 4.1017 h -4.101695 z m 6.152542,0 h 4.101693 v 4.1017 H 57.42372 Z m 6.152541,0 h 4.101695 v 4.1017 h -4.101695 z m 6.152541,0 h 4.101694 v 4.1017 h -4.101694 z m 6.152545,0 h 4.101694 v 4.1017 h -4.101694 z m 6.152539,0 h 4.101689 v 4.1017 h -4.101689 z m 6.299145,0 h 2.050847 6.152542 v 10.25425 h -6.152542 v -6.15255 H 88.333031 Z M 4.1016945,232.905 H 14.35593 v 4.1017 H 4.1016945 Z m 12.3050825,0 h 4.101693 v 4.1017 h -4.101693 z m 6.152542,0 h 4.101694 v 4.1017 h -4.101694 z m 6.152541,0 h 4.101694 v 4.1017 H 28.71186 Z m 6.152541,0 h 4.101694 v 4.1017 h -4.101694 z m 6.152541,0 h 4.101695 v 4.1017 h -4.101695 z m 6.152542,0 h 4.101694 v 4.1017 h -4.101694 z m 6.152541,0 h 4.101695 v 4.1017 h -4.101695 z m 6.152541,0 h 4.101695 v 4.1017 h -4.101695 z m 6.152543,0 h 4.101693 v 4.1017 h -4.101693 z m 6.15254,0 h 4.101698 v 4.1017 h -4.101698 z m 6.152546,0 h 4.101691 v 4.1017 h -4.101691 z m 6.152543,0 h 4.101705 v 4.1017 h -4.101705 z m -79.9830435,6.15255 h 6.1525415 v 4.10168 H 4.1016945 Z m 8.2033885,0 h 4.101694 v 4.10168 h -4.101694 z m 6.152541,0 h 4.101695 v 4.10168 h -4.101695 z m 6.152542,0 h 4.101694 v 4.10168 h -4.101694 z m 6.15254,0 h 4.101695 v 4.10168 h -4.101695 z m 6.152543,0 h 4.101693 v 4.10168 h -4.101693 z m 6.152542,0 h 4.101693 v 4.10168 h -4.101693 z m 6.15254,0 h 4.101694 v 4.10168 h -4.101694 z m 6.152542,0 h 4.101693 v 4.10168 h -4.101693 z m 6.15254,0 h 4.101696 v 4.10168 h -4.101696 z m 6.152543,0 h 4.101693 v 4.10168 h -4.101693 z m 6.15254,0 h 4.101699 v 4.10168 h -4.101699 z m 6.299155,0 H 96.53642 v 4.10168 H 80.129651 Z m -76.0279565,6.15253 h 6.1525415 v 4.10169 H 4.1016945 Z m 8.2033885,0 h 6.152541 v 4.10169 h -6.152541 z m 8.203387,0 h 6.152543 v 4.10169 H 20.50847 Z m 8.20339,0 h 35.011003 v 4.10169 H 28.71186 Z m 37.061851,0 h 6.152542 v 4.10169 h -6.152542 z m 8.203388,0 h 6.152552 v 4.10169 h -6.152552 z m 8.20339,0 h 6.152542 v 4.10169 h -6.152542 z m 8.203389,0 h 6.152542 v 4.10169 h -6.152542 z" style="opacity:1;fill:#131313;fill-opacity:1;stroke:none;stroke-width:3.87561655;stroke-linecap:square;stroke-linejoin:round;stroke-miterlimit:4.30000019;stroke-dasharray:none;stroke-opacity:1;paint-order:markers stroke fill"/><path id="rect1792" d="m 118.23051,206.07458 c -7.32039,0.0113 -13.14486,0.36686 -13.14486,8.27646 v 26.70604 c 0,8.0754 6.06689,14.57664 13.60301,14.57664 7.53611,0 13.60301,-6.50124 13.60301,-14.57664 v -26.70604 c 0,-7.9096 -5.82448,-8.26515 -13.14487,-8.27646 v 3.88347 h 0.67714 c 0.52164,0 0.94153,0.42011 0.94153,0.94176 v 6.24792 c 0,0.52165 -0.41989,0.94154 -0.94153,0.94154 h -0.67714 v 9.49876 h -0.91629 v -9.49876 h -0.67713 c -0.52165,0 -0.94153,-0.41989 -0.94153,-0.94154 v -6.24792 c 0,-0.52165 0.41988,-0.94176 0.94153,-0.94176 h 0.67713 z m -0.21412,4.39875 c -0.5619,0 -1.01415,0.45247 -1.01415,1.01438 v 5.06592 c 0,0.5619 0.45225,1.01416 1.01415,1.01416 h 1.34453 c 0.5619,0 1.01416,-0.45226 1.01416,-1.01416 v -5.06592 c 0,-0.56191 -0.45226,-1.01438 -1.01416,-1.01438 z" style="opacity:1;fill:#000;fill-opacity:1;stroke:none;stroke-width:2.06970906;stroke-linecap:square;stroke-linejoin:round;stroke-miterlimit:4.30000019;stroke-dasharray:none;stroke-opacity:1;paint-order:markers stroke fill"/></g></svg>