<svg xmlns="http://www.w3.org/2000/svg" xmlns:svg="http://www.w3.org/2000/svg" id="svg8" width="500" height="500" version="1.1" viewBox="0 0 132.292 132.292"><metadata id="metadata5"/><g id="layer1" transform="translate(0,-164.70832)"><path id="rect1792" d="M 245.95898 31.433594 C 181.39002 31.533373 130.01563 34.669437 130.01562 104.43555 L 130.01562 339.99414 C 130.01563 411.2227 183.52824 468.56641 250 468.56641 C 316.47176 468.56641 369.98438 411.2227 369.98438 339.99414 L 369.98438 104.43555 C 369.98438 34.669437 318.60997 31.533298 254.04102 31.433594 L 254.04102 65.6875 L 260.01367 65.6875 C 264.61479 65.6875 268.31836 69.393019 268.31836 73.994141 L 268.31836 129.10352 C 268.31836 133.70464 264.61479 137.4082 260.01367 137.4082 L 254.04102 137.4082 L 254.04102 221.19141 L 245.95898 221.19141 L 245.95898 137.4082 L 239.98633 137.4082 C 235.38521 137.4082 231.68164 133.70464 231.68164 129.10352 L 231.68164 73.994141 C 231.68164 69.393019 235.38521 65.6875 239.98633 65.6875 L 245.95898 65.6875 L 245.95898 31.433594 z M 244.07031 70.232422 C 239.11412 70.232422 235.125 74.223494 235.125 79.179688 L 235.125 123.86328 C 235.125 128.81947 239.11412 132.80859 244.07031 132.80859 L 255.92969 132.80859 C 260.88588 132.80859 264.875 128.81947 264.875 123.86328 L 264.875 79.179688 C 264.875 74.223494 260.88588 70.232422 255.92969 70.232422 L 244.07031 70.232422 z" transform="matrix(0.26458333,0,0,0.26458333,0,164.70832)" style="opacity:1;fill:#000;fill-opacity:1;stroke:none;stroke-width:18.25572205;stroke-linecap:square;stroke-linejoin:round;stroke-miterlimit:4.30000019;stroke-dasharray:none;stroke-opacity:1;paint-order:markers stroke fill"/></g></svg>