<svg xmlns="http://www.w3.org/2000/svg" xmlns:svg="http://www.w3.org/2000/svg" id="svg8" width="500" height="500" version="1.1" viewBox="0 0 132.292 132.292"><metadata id="metadata5"/><g id="layer1" transform="translate(0,-164.70832)"><path id="rect6191" d="m 71.943929,175.85415 v 110 h 26.861925 c 9.061446,0 16.356106,-7.29517 16.356106,-16.35662 v -77.28727 c 0,-9.06145 -7.29466,-16.35611 -16.356106,-16.35611 z m -33.81964,0.18448 c -11.515164,0 -20.994584,9.47891 -20.994584,20.99407 v 67.64083 c 0,11.51516 9.47942,20.99407 20.994584,20.99407 H 65.258032 V 176.03863 Z m -0.242879,10.07898 h 17.338992 v 89.4736 H 37.88141 c -4.689584,0 -10.373527,-3.55177 -10.373527,-8.24135 v -72.99348 c 0,-4.68959 5.683943,-8.23877 10.373527,-8.23877 z m 3.319692,6.75049 A 10.828915,10.828915 0 0 0 30.372307,203.6969 10.828915,10.828915 0 0 0 41.201102,214.52569 10.828915,10.828915 0 0 0 52.0299,203.6969 10.828915,10.828915 0 0 0 41.201102,192.8681 Z m 51.627341,38.05814 a 10.828915,10.828915 0 0 1 10.828797,10.8288 10.828915,10.828915 0 0 1 -10.828797,10.82879 10.828915,10.828915 0 0 1 -10.829313,-10.82879 10.828915,10.828915 0 0 1 10.829313,-10.8288 z" style="display:inline;fill:#000;fill-opacity:1;stroke:none;stroke-width:15.2635;stroke-linecap:round;stroke-linejoin:round;stroke-miterlimit:4;stroke-dasharray:none;stroke-opacity:1"/></g></svg>