<svg xmlns="http://www.w3.org/2000/svg" xmlns:svg="http://www.w3.org/2000/svg" id="svg8" width="500" height="500" version="1.1" viewBox="0 0 132.292 132.292"><metadata id="metadata5"/><g id="layer1" transform="translate(0,-164.70832)"><path id="path2894" d="m 250.00195,28.917969 c -121.99322,0 -221.087887,99.086831 -221.087888,221.080081 0,121.99321 99.094668,221.08789 221.087888,221.08789 121.99323,0 221.08008,-99.09468 221.08008,-221.08789 0,-121.99325 -99.08685,-221.080081 -221.08008,-221.080081 z m 0,18.152343 c 40.40921,0 78.03559,11.774622 109.64258,32.083985 L 250.13281,123.4707 140.45703,79.089844 C 172.04464,58.819805 209.63528,47.070312 250.00195,47.070312 Z m 129.19141,46.357422 c 45.05198,37.202166 73.73633,93.498106 73.73633,156.570316 0,39.10466 -11.03518,75.59789 -30.15235,106.55859 L 307.88086,170.56055 Z m -258.92969,0.460938 68.25,76.671878 L 76.947266,356.11523 C 57.996911,325.24962 47.066406,288.9163 47.066406,249.99805 c 0,-62.81533 28.459723,-118.90403 73.197264,-156.109378 z M 250.13281,255.61523 410.60742,374.125 c -37.0962,47.95507 -95.20311,78.80859 -160.60547,78.80859 -65.34575,0 -123.41114,-30.79962 -160.513669,-78.68359 z" transform="matrix(0.26458333,0,0,0.26458333,0,164.70832)" style="color:#000;fill:#000;stroke-width:3.77953;stroke-linecap:round;stroke-linejoin:round;-inkscape-stroke:none"/></g></svg>