<svg xmlns="http://www.w3.org/2000/svg" xmlns:svg="http://www.w3.org/2000/svg" id="svg8" width="500" height="500" version="1.1" viewBox="0 0 132.292 132.292"><metadata id="metadata5"/><g id="layer1" transform="translate(0,-164.70832)"><path id="rect6592" d="M 95.980469 80.294922 C 60.42807 80.294922 31.806641 108.91635 31.806641 144.46875 L 31.806641 295.93359 C 31.806641 331.48599 60.42807 360.10742 95.980469 360.10742 L 404.01953 360.10742 C 439.57193 360.10742 468.19336 331.48599 468.19336 295.93359 L 468.19336 144.46875 C 468.19336 108.91635 439.57193 80.294922 404.01953 80.294922 L 95.980469 80.294922 z M 149.75977 180.35156 L 179.94922 180.35156 L 214.36328 260.04883 L 190.69531 260.04883 L 183.45117 243.14453 L 146.25781 243.14453 L 139.01367 260.04883 L 115.3457 260.04883 L 149.75977 180.35156 z M 223.42969 180.35156 L 247.58008 180.35156 L 247.58008 245.55859 L 297.08984 245.55859 L 297.08984 260.04883 L 223.42969 260.04883 L 223.42969 180.35156 z M 287.43945 180.35156 L 376.79688 180.35156 L 376.79688 194.8418 L 344.19336 194.8418 L 344.19336 260.04883 L 320.04297 260.04883 L 320.04297 194.8418 L 287.43945 194.8418 L 287.43945 180.35156 z M 164.85352 200.27734 L 152.53711 228.6543 L 177.17188 228.6543 L 164.85352 200.27734 z" transform="matrix(0.26458333,0,0,0.26458333,0,164.70832)" style="opacity:1;fill:#000;fill-opacity:1;stroke:none;stroke-width:18.89763832;stroke-linecap:square;stroke-linejoin:round;stroke-miterlimit:4.30000019;stroke-dasharray:none;stroke-opacity:1;paint-order:markers stroke fill"/><path id="rect6592-9" d="m 8.4157475,250.49053 v 10.42365 c 0,9.40658 7.5727535,16.97933 16.9793255,16.97933 h 81.501487 c 9.40657,0 16.97932,-7.57275 16.97932,-16.97933 v -10.42365 c 0,9.40657 -7.57275,16.97984 -16.97932,16.97984 H 25.395073 c -9.406572,0 -16.9793255,-7.57327 -16.9793255,-16.97984 z" style="opacity:1;fill:#000;fill-opacity:1;stroke:none;stroke-width:5;stroke-linecap:square;stroke-linejoin:round;stroke-miterlimit:4.30000019;stroke-dasharray:none;stroke-opacity:1;paint-order:markers stroke fill"/></g></svg>