<svg xmlns="http://www.w3.org/2000/svg" xmlns:svg="http://www.w3.org/2000/svg" id="svg8" width="500" height="500" version="1.1" viewBox="0 0 132.292 132.292"><metadata id="metadata5"/><g id="layer1" transform="translate(0,-164.70832)"><path id="rect6592" d="M 95.980469 80.294922 C 60.42807 80.294922 31.806641 108.91635 31.806641 144.46875 L 31.806641 295.93359 C 31.806641 331.48599 60.42807 360.10742 95.980469 360.10742 L 404.01953 360.10742 C 439.57193 360.10742 468.19336 331.48599 468.19336 295.93359 L 468.19336 144.46875 C 468.19336 108.91635 439.57193 80.294922 404.01953 80.294922 L 95.980469 80.294922 z M 250 120.18359 L 351.01562 187.86328 L 320.71094 187.86328 L 320.71094 202.14258 L 179.28906 202.14258 L 179.28906 187.86328 L 148.98438 187.86328 L 250 120.18359 z M 179.28906 225 L 320.71094 225 L 320.71094 236.34961 L 179.28906 236.34961 L 179.28906 225 z M 135.39844 257.12305 L 174.88867 257.12305 L 174.88867 267.20703 L 140.86133 267.20703 C 138.90083 267.20703 137.91992 267.99019 137.91992 269.55859 L 137.91992 300.14258 C 137.91992 301.71098 138.90083 302.49414 140.86133 302.49414 L 174.88867 302.49414 L 174.88867 312.57812 L 135.39844 312.57812 C 125.87601 312.57812 121.11523 308.76833 121.11523 301.15039 L 121.11523 268.55078 C 121.11523 260.93284 125.87601 257.12305 135.39844 257.12305 z M 203.4375 257.12305 L 224.44141 257.12305 L 248.38867 312.57812 L 231.91992 312.57812 L 226.87891 300.81445 L 201 300.81445 L 195.95898 312.57812 L 179.49023 312.57812 L 203.4375 257.12305 z M 254.69727 257.12305 L 295.86719 257.12305 C 305.38961 257.12305 310.15039 260.93284 310.15039 268.55078 L 310.15039 281.40625 C 310.15039 289.02419 305.38961 292.83203 295.86719 292.83203 L 271.5 292.83203 L 271.5 312.57812 L 254.69727 312.57812 L 254.69727 257.12305 z M 333.61719 257.12305 L 370.58789 257.12305 L 370.58789 267.20703 L 339.07812 267.20703 C 337.11764 267.20703 336.13867 267.99019 336.13867 269.55859 L 336.13867 276.19727 C 336.13867 277.76567 337.11764 278.54883 339.07812 278.54883 L 360.50391 278.54883 C 370.02633 278.54883 374.78711 282.35862 374.78711 289.97656 L 374.78711 301.15039 C 374.78711 308.76833 370.02633 312.57812 360.50391 312.57812 L 319.33398 312.57812 L 319.33398 302.49414 L 355.04297 302.49414 C 357.00347 302.49414 357.98438 301.71098 357.98438 300.14258 L 357.98438 290.98438 C 357.98438 289.41598 357.00347 288.63086 355.04297 288.63086 L 333.61719 288.63086 C 324.09476 288.63086 319.33398 284.82302 319.33398 277.20508 L 319.33398 268.55078 C 319.33398 260.93284 324.09476 257.12305 333.61719 257.12305 z M 271.5 267.20703 L 271.5 282.75 L 290.40625 282.75 C 292.36675 282.75 293.3457 281.96684 293.3457 280.39844 L 293.3457 269.55859 C 293.3457 267.99019 292.36675 267.20703 290.40625 267.20703 L 271.5 267.20703 z M 213.93945 270.98633 L 205.36914 290.73242 L 222.50977 290.73242 L 213.93945 270.98633 z" transform="matrix(0.26458333,0,0,0.26458333,0,164.70832)" style="opacity:1;fill:#000;fill-opacity:1;stroke:none;stroke-width:18.89763832;stroke-linecap:square;stroke-linejoin:round;stroke-miterlimit:4.30000019;stroke-dasharray:none;stroke-opacity:1;paint-order:markers stroke fill"/><path id="rect6592-9" d="m 8.4157475,250.49053 v 10.42365 c 0,9.40658 7.5727535,16.97933 16.9793255,16.97933 h 81.501487 c 9.40657,0 16.97932,-7.57275 16.97932,-16.97933 v -10.42365 c 0,9.40657 -7.57275,16.97984 -16.97932,16.97984 H 25.395073 c -9.406572,0 -16.9793255,-7.57327 -16.9793255,-16.97984 z" style="opacity:1;fill:#000;fill-opacity:1;stroke:none;stroke-width:5;stroke-linecap:square;stroke-linejoin:round;stroke-miterlimit:4.30000019;stroke-dasharray:none;stroke-opacity:1;paint-order:markers stroke fill"/></g></svg>