<svg xmlns="http://www.w3.org/2000/svg" xmlns:svg="http://www.w3.org/2000/svg" id="svg8" width="500" height="500" version="1.1" viewBox="0 0 132.292 132.292"><metadata id="metadata5"/><g id="layer1" transform="translate(0,-164.70832)"><path id="rect6592" d="M 109.85547 34.994141 C 65.033699 34.994141 28.949219 71.078621 28.949219 115.90039 L 28.949219 306.85547 C 28.949219 351.67724 65.033699 387.76172 109.85547 387.76172 L 390.14453 387.76172 C 434.9663 387.76172 471.05078 351.67724 471.05078 306.85547 L 471.05078 115.90039 C 471.05078 71.078621 434.9663 34.994141 390.14453 34.994141 L 109.85547 34.994141 z M 64.771484 152.62305 L 176.93945 152.62305 L 176.93945 173.98828 L 100.38086 173.98828 L 100.38086 199.80469 L 168.03711 199.80469 L 168.03711 221.16992 L 100.38086 221.16992 L 100.38086 270.13281 L 64.771484 270.13281 L 64.771484 152.62305 z M 208.17969 152.62305 L 275.83789 152.62305 L 275.83789 270.13281 L 240.22852 270.13281 L 240.22852 173.98828 L 208.17969 173.98828 L 208.17969 152.62305 z M 333.74414 152.62305 L 404.96094 152.62305 C 425.13925 152.62305 435.22852 160.69524 435.22852 176.83789 L 435.22852 195.17578 C 435.22852 211.31843 425.13925 219.39063 404.96094 219.39062 L 366.68164 219.39062 C 362.52728 219.39062 360.44922 221.05151 360.44922 224.375 L 360.44922 248.76758 L 435.22852 248.76758 L 435.22852 270.13281 L 324.8418 270.13281 L 324.8418 222.23828 C 324.8418 206.09563 334.93106 198.02539 355.10938 198.02539 L 393.38867 198.02539 C 397.54303 198.02539 399.61914 196.36255 399.61914 193.03906 L 399.61914 178.97461 C 399.61914 175.65112 397.54303 173.98828 393.38867 173.98828 L 333.74414 173.98828 L 333.74414 152.62305 z" transform="matrix(0.26458333,0,0,0.26458333,0,164.70832)" style="opacity:1;fill:#000;fill-opacity:1;stroke:none;stroke-width:21.35711288;stroke-linecap:square;stroke-linejoin:round;stroke-miterlimit:4.30000019;stroke-dasharray:none;stroke-opacity:1;paint-order:markers stroke fill"/><path id="rect6592-9" d="m 7.6597967,255.33147 v 13.14135 c 0,11.85911 7.6719153,21.40625 17.2016633,21.40625 h 82.56871 c 9.52975,0 17.20166,-9.54714 17.20166,-21.40625 v -13.14135 c 0,11.85909 -7.67191,21.4069 -17.20166,21.4069 H 24.86146 c -9.529748,0 -17.2016633,-9.54781 -17.2016633,-21.4069 z" style="opacity:1;fill:#000;fill-opacity:1;stroke:none;stroke-width:5.65073633;stroke-linecap:square;stroke-linejoin:round;stroke-miterlimit:4.30000019;stroke-dasharray:none;stroke-opacity:1;paint-order:markers stroke fill"/></g></svg>