<svg xmlns="http://www.w3.org/2000/svg" xmlns:svg="http://www.w3.org/2000/svg" id="svg8" width="500" height="500" version="1.1" viewBox="0 0 132.292 132.292"><metadata id="metadata5"/><g id="layer1" transform="translate(0,-164.70832)"><path id="rect6592" d="M 109.85547 34.994141 C 65.033699 34.994141 28.949219 71.078621 28.949219 115.90039 L 28.949219 306.85547 C 28.949219 351.67724 65.033699 387.76172 109.85547 387.76172 L 390.14453 387.76172 C 434.9663 387.76172 471.05078 351.67724 471.05078 306.85547 L 471.05078 115.90039 C 471.05078 71.078621 434.9663 34.994141 390.14453 34.994141 L 109.85547 34.994141 z M 144.4668 152.62305 L 256.63477 152.62305 L 256.63477 173.98828 L 180.07617 173.98828 L 180.07617 199.80469 L 247.73242 199.80469 L 247.73242 221.16992 L 180.07617 221.16992 L 180.07617 270.13281 L 144.4668 270.13281 L 144.4668 152.62305 z M 308.35156 152.62305 L 374.22656 152.62305 L 374.22656 173.98828 L 320.81445 173.98828 C 312.50574 173.98828 308.35156 177.31201 308.35156 183.95898 L 308.35156 198.02539 L 352.86133 198.02539 C 373.03964 198.02539 383.12891 206.09563 383.12891 222.23828 L 383.12891 245.91797 C 383.12891 262.06062 373.03964 270.13281 352.86133 270.13281 L 303.00977 270.13281 C 282.83145 270.13281 272.74219 262.06062 272.74219 245.91797 L 272.74219 181.11133 C 272.74219 162.11998 284.61237 152.62305 308.35156 152.62305 z M 308.35156 219.39062 L 308.35156 243.78125 C 308.35156 247.10474 310.42767 248.76758 314.58203 248.76758 L 341.28906 248.76758 C 345.44342 248.76758 347.52148 247.10474 347.52148 243.78125 L 347.52148 224.375 C 347.52148 221.05151 345.44342 219.39062 341.28906 219.39062 L 308.35156 219.39062 z" transform="matrix(0.26458333,0,0,0.26458333,0,164.70832)" style="opacity:1;fill:#000;fill-opacity:1;stroke:none;stroke-width:21.35711288;stroke-linecap:square;stroke-linejoin:round;stroke-miterlimit:4.30000019;stroke-dasharray:none;stroke-opacity:1;paint-order:markers stroke fill"/><path id="rect6592-9" d="m 7.6597967,255.33147 v 13.14135 c 0,11.85911 7.6719153,21.40625 17.2016633,21.40625 h 82.56871 c 9.52975,0 17.20166,-9.54714 17.20166,-21.40625 v -13.14135 c 0,11.85909 -7.67191,21.4069 -17.20166,21.4069 H 24.86146 c -9.529748,0 -17.2016633,-9.54781 -17.2016633,-21.4069 z" style="opacity:1;fill:#000;fill-opacity:1;stroke:none;stroke-width:5.65073633;stroke-linecap:square;stroke-linejoin:round;stroke-miterlimit:4.30000019;stroke-dasharray:none;stroke-opacity:1;paint-order:markers stroke fill"/></g></svg>