<svg xmlns="http://www.w3.org/2000/svg" xmlns:svg="http://www.w3.org/2000/svg" id="svg8" width="500" height="500" version="1.1" viewBox="0 0 132.292 132.292"><metadata id="metadata5"/><g id="layer1" transform="translate(0,-164.70832)"><path id="rect6592" d="M 109.85547 34.994141 C 65.033699 34.994141 28.949219 71.078621 28.949219 115.90039 L 28.949219 306.85547 C 28.949219 351.67724 65.033699 387.76172 109.85547 387.76172 L 390.14453 387.76172 C 434.9663 387.76172 471.05078 351.67724 471.05078 306.85547 L 471.05078 115.90039 C 471.05078 71.078621 434.9663 34.994141 390.14453 34.994141 L 109.85547 34.994141 z M 144.4668 152.62305 L 256.63477 152.62305 L 256.63477 173.98828 L 180.07617 173.98828 L 180.07617 199.80469 L 247.73242 199.80469 L 247.73242 221.16992 L 180.07617 221.16992 L 180.07617 270.13281 L 144.4668 270.13281 L 144.4668 152.62305 z M 303.00977 152.62305 L 352.86133 152.62305 C 373.03964 152.62305 383.12891 160.69524 383.12891 176.83789 L 383.12891 241.64453 C 383.12891 260.63588 371.26067 270.13281 347.52148 270.13281 L 279.86328 270.13281 L 279.86328 248.76758 L 335.05859 248.76758 C 343.36731 248.76758 347.52148 245.44385 347.52148 238.79688 L 347.52148 219.39062 L 303.00977 219.39062 C 282.83145 219.39062 272.74219 211.31843 272.74219 195.17578 L 272.74219 176.83789 C 272.74219 160.69524 282.83145 152.62305 303.00977 152.62305 z M 314.58203 173.98828 C 310.42767 173.98828 308.35156 175.65112 308.35156 178.97461 L 308.35156 193.03906 C 308.35156 196.36255 310.42767 198.02539 314.58203 198.02539 L 347.52148 198.02539 L 347.52148 178.97461 C 347.52148 175.65112 345.44342 173.98828 341.28906 173.98828 L 314.58203 173.98828 z" transform="matrix(0.26458333,0,0,0.26458333,0,164.70832)" style="opacity:1;fill:#000;fill-opacity:1;stroke:none;stroke-width:21.35711288;stroke-linecap:square;stroke-linejoin:round;stroke-miterlimit:4.30000019;stroke-dasharray:none;stroke-opacity:1;paint-order:markers stroke fill"/><path id="rect6592-9" d="m 7.6597967,255.33147 v 13.14135 c 0,11.85911 7.6719153,21.40625 17.2016633,21.40625 h 82.56871 c 9.52975,0 17.20166,-9.54714 17.20166,-21.40625 v -13.14135 c 0,11.85909 -7.67191,21.4069 -17.20166,21.4069 H 24.86146 c -9.529748,0 -17.2016633,-9.54781 -17.2016633,-21.4069 z" style="opacity:1;fill:#000;fill-opacity:1;stroke:none;stroke-width:5.65073633;stroke-linecap:square;stroke-linejoin:round;stroke-miterlimit:4.30000019;stroke-dasharray:none;stroke-opacity:1;paint-order:markers stroke fill"/></g></svg>