<svg xmlns="http://www.w3.org/2000/svg" xmlns:svg="http://www.w3.org/2000/svg" id="svg8" width="500" height="500" version="1.1" viewBox="0 0 132.292 132.292"><metadata id="metadata5"/><g id="layer1" transform="translate(0,-164.70832)"><path id="rect6592" d="M 109.85547 34.994141 C 65.033699 34.994141 28.949219 71.078621 28.949219 115.90039 L 28.949219 306.85547 C 28.949219 351.67724 65.033699 387.76172 109.85547 387.76172 L 390.14453 387.76172 C 434.9663 387.76172 471.05078 351.67724 471.05078 306.85547 L 471.05078 115.90039 C 471.05078 71.078621 434.9663 34.994141 390.14453 34.994141 L 109.85547 34.994141 z M 96.787109 113.44336 L 124.84766 113.44336 L 162.04688 165.13086 L 162.04688 113.44336 L 188.15039 113.44336 L 188.15039 199.58789 L 160.08984 199.58789 L 122.89062 147.90234 L 122.89062 199.58789 L 96.787109 199.58789 L 96.787109 113.44336 z M 205.09766 135.63281 L 228.5918 135.63281 L 228.5918 183.27344 C 228.5918 185.01371 229.68012 185.88281 231.85547 185.88281 L 254.69531 185.88281 L 254.69531 135.63281 L 278.18945 135.63281 L 278.18945 199.58789 L 224.67578 199.58789 C 211.62371 199.58789 205.09766 194.36743 205.09766 183.92578 L 205.09766 135.63281 z M 293.81055 135.63281 L 383.87109 135.63281 C 396.92316 135.63281 403.44922 140.85327 403.44922 151.29492 L 403.44922 199.58789 L 379.95508 199.58789 L 379.95508 151.94727 C 379.95508 150.20699 378.86675 149.33789 376.69141 149.33789 L 360.37695 149.33789 L 360.37695 199.58789 L 336.88281 199.58789 L 336.88281 151.94727 C 336.88281 150.20699 335.79644 149.33789 333.62109 149.33789 L 317.30469 149.33789 L 317.30469 199.58789 L 293.81055 199.58789 L 293.81055 135.63281 z M 85.824219 223.16797 L 111.92969 223.16797 L 111.92969 293.64844 L 165.44141 293.64844 L 165.44141 309.3125 L 85.824219 309.3125 L 85.824219 223.16797 z M 344.03125 223.16797 L 367.52539 223.16797 L 367.52539 268.84961 L 391.67188 245.35742 L 419.73242 245.35742 L 392.19336 272.11328 L 421.03906 309.3125 L 395.58594 309.3125 L 377.70508 286.20898 L 367.52539 296.12891 L 367.52539 309.3125 L 344.03125 309.3125 L 344.03125 223.16797 z M 195.35938 245.35742 L 229.29492 245.35742 C 242.34699 245.35742 248.87305 250.57788 248.87305 261.01953 L 248.87305 293.64844 C 248.87305 304.09009 242.34699 309.3125 229.29492 309.3125 L 195.35938 309.3125 C 182.30731 309.3125 175.78125 304.09009 175.78125 293.64844 L 175.78125 261.01953 C 175.78125 250.57788 182.30731 245.35742 195.35938 245.35742 z M 284.07422 245.35742 L 331.06055 245.35742 L 331.06055 259.06055 L 291.25195 259.06055 C 289.07661 259.06055 287.98828 259.9316 287.98828 261.67188 L 287.98828 292.99609 C 287.98828 294.73637 289.07661 295.60742 291.25195 295.60742 L 331.06055 295.60742 L 331.06055 309.3125 L 284.07422 309.3125 C 271.02215 309.3125 264.49609 304.09009 264.49609 293.64844 L 264.49609 261.01953 C 264.49609 250.57788 271.02215 245.35742 284.07422 245.35742 z M 202.53906 259.06055 C 200.36372 259.06055 199.27539 259.9316 199.27539 261.67188 L 199.27539 292.99609 C 199.27539 294.73637 200.36372 295.60742 202.53906 295.60742 L 222.11719 295.60742 C 224.29253 295.60742 225.37891 294.73637 225.37891 292.99609 L 225.37891 261.67188 C 225.37891 259.9316 224.29253 259.06055 222.11719 259.06055 L 202.53906 259.06055 z" transform="matrix(0.26458333,0,0,0.26458333,0,164.70832)" style="opacity:1;fill:#000;fill-opacity:1;stroke:none;stroke-width:21.35711288;stroke-linecap:square;stroke-linejoin:round;stroke-miterlimit:4.30000019;stroke-dasharray:none;stroke-opacity:1;paint-order:markers stroke fill"/><path id="rect6592-9" d="m 7.6597967,255.33147 v 13.14135 c 0,11.85911 7.6719153,21.40625 17.2016633,21.40625 h 82.56871 c 9.52975,0 17.20166,-9.54714 17.20166,-21.40625 v -13.14135 c 0,11.85909 -7.67191,21.4069 -17.20166,21.4069 H 24.86146 c -9.529748,0 -17.2016633,-9.54781 -17.2016633,-21.4069 z" style="opacity:1;fill:#000;fill-opacity:1;stroke:none;stroke-width:5.65073633;stroke-linecap:square;stroke-linejoin:round;stroke-miterlimit:4.30000019;stroke-dasharray:none;stroke-opacity:1;paint-order:markers stroke fill"/></g></svg>