<svg xmlns="http://www.w3.org/2000/svg" xmlns:svg="http://www.w3.org/2000/svg" id="svg8" width="500" height="500" version="1.1" viewBox="0 0 132.292 132.292"><metadata id="metadata5"/><g id="layer1" transform="translate(0,-164.70832)"><path id="rect6592" d="M 109.85547 34.994141 C 65.033699 34.994141 28.949219 71.078621 28.949219 115.90039 L 28.949219 306.85547 C 28.949219 351.67724 65.033699 387.76172 109.85547 387.76172 L 390.14453 387.76172 C 434.9663 387.76172 471.05078 351.67724 471.05078 306.85547 L 471.05078 115.90039 C 471.05078 71.078621 434.9663 34.994141 390.14453 34.994141 L 109.85547 34.994141 z M 59.658203 168.33789 L 123.56641 168.33789 C 138.34789 168.33789 145.73828 174.25098 145.73828 186.07617 L 145.73828 206.03125 C 145.73828 217.85644 138.34789 223.76758 123.56641 223.76758 L 85.744141 223.76758 L 85.744141 254.41797 L 59.658203 254.41797 L 59.658203 168.33789 z M 217.31055 168.33789 L 240.78516 168.33789 L 240.78516 190.50977 L 262.95898 190.50977 L 262.95898 204.20508 L 240.78516 204.20508 L 240.78516 238.11523 C 240.78516 239.85423 241.87313 240.72266 244.04688 240.72266 L 262.95898 240.72266 L 262.95898 254.41797 L 236.87305 254.41797 C 223.83056 254.41797 217.31055 249.20157 217.31055 238.76758 L 217.31055 168.33789 z M 298.07031 168.33789 L 355.45898 168.33789 L 355.45898 183.98828 L 306.54883 183.98828 C 303.50558 183.98828 301.98438 185.20603 301.98438 187.64062 L 301.98438 197.94336 C 301.98438 200.37796 303.50558 201.5957 306.54883 201.5957 L 339.80664 201.5957 C 354.58813 201.5957 361.97852 207.50879 361.97852 219.33398 L 361.97852 236.67969 C 361.97852 248.50488 354.58813 254.41797 339.80664 254.41797 L 275.89844 254.41797 L 275.89844 238.76758 L 331.33008 238.76758 C 334.37333 238.76758 335.89453 237.54983 335.89453 235.11523 L 335.89453 220.89844 C 335.89453 218.46384 334.37333 217.24609 331.33008 217.24609 L 298.07031 217.24609 C 283.28883 217.24609 275.89844 211.33496 275.89844 199.50977 L 275.89844 186.07617 C 275.89844 174.25098 283.28883 168.33789 298.07031 168.33789 z M 85.744141 183.98828 L 85.744141 208.11719 L 115.08984 208.11719 C 118.13309 208.11719 119.6543 206.89944 119.6543 204.46484 L 119.6543 187.64062 C 119.6543 185.20603 118.13309 183.98828 115.08984 183.98828 L 85.744141 183.98828 z M 179.55859 190.50977 L 205.64258 190.50977 L 205.64258 204.20508 L 186.73047 204.20508 C 184.55672 204.20508 183.4707 205.0735 183.4707 206.8125 L 183.4707 254.41797 L 159.99414 254.41797 L 159.99414 206.16016 C 159.99414 195.72617 166.51611 190.50977 179.55859 190.50977 z M 397.10156 190.50977 L 444.05469 190.50977 L 444.05469 204.20508 L 404.27539 204.20508 C 402.10164 204.20508 401.01562 205.0735 401.01562 206.8125 L 401.01562 238.11523 C 401.01562 239.85423 402.10164 240.72266 404.27539 240.72266 L 444.05469 240.72266 L 444.05469 254.41797 L 397.10156 254.41797 C 384.05907 254.41797 377.53906 249.20157 377.53906 238.76758 L 377.53906 206.16016 C 377.53906 195.72617 384.05907 190.50977 397.10156 190.50977 z" transform="matrix(0.26458333,0,0,0.26458333,0,164.70832)" style="opacity:1;fill:#000;fill-opacity:1;stroke:none;stroke-width:21.35711288;stroke-linecap:square;stroke-linejoin:round;stroke-miterlimit:4.30000019;stroke-dasharray:none;stroke-opacity:1;paint-order:markers stroke fill"/><path id="rect6592-9" d="m 7.6597967,255.33147 v 13.14135 c 0,11.85911 7.6719153,21.40625 17.2016633,21.40625 h 82.56871 c 9.52975,0 17.20166,-9.54714 17.20166,-21.40625 v -13.14135 c 0,11.85909 -7.67191,21.4069 -17.20166,21.4069 H 24.86146 c -9.529748,0 -17.2016633,-9.54781 -17.2016633,-21.4069 z" style="opacity:1;fill:#000;fill-opacity:1;stroke:none;stroke-width:5.65073633;stroke-linecap:square;stroke-linejoin:round;stroke-miterlimit:4.30000019;stroke-dasharray:none;stroke-opacity:1;paint-order:markers stroke fill"/></g></svg>