<svg xmlns="http://www.w3.org/2000/svg" xmlns:svg="http://www.w3.org/2000/svg" id="svg8" width="500" height="500" version="1.1" viewBox="0 0 132.292 132.292"><metadata id="metadata5"/><g id="layer1" transform="translate(0,-164.70832)"><path id="rect6592" d="M 95.980469 80.294922 C 60.42807 80.294922 31.806641 108.91635 31.806641 144.46875 L 31.806641 295.93359 C 31.806641 331.48599 60.42807 360.10742 95.980469 360.10742 L 404.01953 360.10742 C 439.57193 360.10742 468.19336 331.48599 468.19336 295.93359 L 468.19336 144.46875 C 468.19336 108.91635 439.57193 80.294922 404.01953 80.294922 L 95.980469 80.294922 z M 192.45312 119.94141 L 244.9707 119.94141 L 244.9707 172.45703 L 192.45312 172.45703 L 192.45312 119.94141 z M 255.0293 119.94141 L 307.54688 119.94141 L 307.54688 172.45703 L 255.0293 172.45703 L 255.0293 119.94141 z M 192.45312 181.74805 L 244.9707 181.74805 L 244.9707 234.26562 L 192.45312 234.26562 L 192.45312 181.74805 z M 255.0293 181.74805 L 307.54688 181.74805 L 307.54688 234.26562 L 255.0293 234.26562 L 255.0293 181.74805 z M 101.41016 257.12305 L 138.37891 257.12305 L 138.37891 267.20703 L 106.87109 267.20703 C 104.91059 267.20703 103.92969 267.99019 103.92969 269.55859 L 103.92969 276.19727 C 103.92969 277.76567 104.91059 278.54883 106.87109 278.54883 L 128.29688 278.54883 C 137.81929 278.54883 142.58008 282.35862 142.58008 289.97656 L 142.58008 301.15039 C 142.58008 308.76833 137.81929 312.57812 128.29688 312.57812 L 87.126953 312.57812 L 87.126953 302.49414 L 122.83594 302.49414 C 124.79644 302.49414 125.77539 301.71098 125.77539 300.14258 L 125.77539 290.98438 C 125.77539 289.41598 124.79644 288.63086 122.83594 288.63086 L 101.41016 288.63086 C 91.887727 288.63086 87.126953 284.82302 87.126953 277.20508 L 87.126953 268.55078 C 87.126953 260.93284 91.887727 257.12305 101.41016 257.12305 z M 153.44336 257.12305 L 170.24805 257.12305 L 170.24805 300.14258 C 170.24805 301.71098 171.22895 302.49414 173.18945 302.49414 L 191.67383 302.49414 C 193.63433 302.49414 194.61523 301.71098 194.61523 300.14258 L 194.61523 257.12305 L 211.41797 257.12305 L 211.41797 301.15039 C 211.41797 308.76833 206.65719 312.57812 197.13477 312.57812 L 167.72852 312.57812 C 158.20609 312.57812 153.44336 308.76833 153.44336 301.15039 L 153.44336 257.12305 z M 223.18945 257.12305 L 264.35938 257.12305 C 273.88179 257.12305 278.64258 260.93284 278.64258 268.55078 L 278.64258 281.40625 C 278.64258 289.02419 273.88179 292.83203 264.35938 292.83203 L 239.99219 292.83203 L 239.99219 312.57812 L 223.18945 312.57812 L 223.18945 257.12305 z M 288.66602 257.12305 L 342.43945 257.12305 L 342.43945 267.20703 L 305.4707 267.20703 L 305.4707 278.54883 L 338.23828 278.54883 L 338.23828 288.63086 L 305.4707 288.63086 L 305.4707 302.49414 L 342.43945 302.49414 L 342.43945 312.57812 L 288.66602 312.57812 L 288.66602 257.12305 z M 352.50195 257.12305 L 393.67383 257.12305 C 403.19625 257.12305 407.95703 260.93284 407.95703 268.55078 L 407.95703 280.14453 C 407.95703 286.86624 404.17521 290.67604 396.61328 291.57227 L 410.47656 312.57812 L 392.32812 312.57812 L 378.46484 291.57227 L 369.30664 291.57227 L 369.30664 312.57812 L 352.50195 312.57812 L 352.50195 257.12305 z M 239.99219 267.20703 L 239.99219 282.75 L 258.89844 282.75 C 260.85894 282.75 261.83789 281.96684 261.83789 280.39844 L 261.83789 269.55859 C 261.83789 267.99019 260.85894 267.20703 258.89844 267.20703 L 239.99219 267.20703 z M 369.30664 267.20703 L 369.30664 281.49023 L 388.21094 281.49023 C 390.17144 281.49023 391.15234 280.70512 391.15234 279.13672 L 391.15234 269.55859 C 391.15234 267.99019 390.17144 267.20703 388.21094 267.20703 L 369.30664 267.20703 z" transform="matrix(0.26458333,0,0,0.26458333,0,164.70832)" style="opacity:1;fill:#000;fill-opacity:1;stroke:none;stroke-width:18.89763832;stroke-linecap:square;stroke-linejoin:round;stroke-miterlimit:4.30000019;stroke-dasharray:none;stroke-opacity:1;paint-order:markers stroke fill"/><path id="rect6592-9" d="m 8.4157475,250.49053 v 10.42365 c 0,9.40658 7.5727535,16.97933 16.9793255,16.97933 h 81.501487 c 9.40657,0 16.97932,-7.57275 16.97932,-16.97933 v -10.42365 c 0,9.40657 -7.57275,16.97984 -16.97932,16.97984 H 25.395073 c -9.406572,0 -16.9793255,-7.57327 -16.9793255,-16.97984 z" style="opacity:1;fill:#000;fill-opacity:1;stroke:none;stroke-width:5;stroke-linecap:square;stroke-linejoin:round;stroke-miterlimit:4.30000019;stroke-dasharray:none;stroke-opacity:1;paint-order:markers stroke fill"/></g></svg>