<svg xmlns="http://www.w3.org/2000/svg" xmlns:svg="http://www.w3.org/2000/svg" id="svg8" width="500" height="500" version="1.1" viewBox="0 0 132.292 132.292"><metadata id="metadata5"/><g id="layer1" transform="translate(0,-164.70832)"><path id="rect6592" d="M 95.980469 80.294922 C 60.42807 80.294922 31.806641 108.91635 31.806641 144.46875 L 31.806641 295.93359 C 31.806641 331.48599 60.42807 360.10742 95.980469 360.10742 L 404.01953 360.10742 C 439.57193 360.10742 468.19336 331.48599 468.19336 295.93359 L 468.19336 144.46875 C 468.19336 108.91635 439.57193 80.294922 404.01953 80.294922 L 95.980469 80.294922 z M 339.48047 174.74414 L 339.48047 192.16992 L 430.82227 192.16992 L 430.82227 202.77539 L 339.48047 202.77539 L 339.48047 220.20117 L 265.46094 197.47266 L 339.48047 174.74414 z M 53.650391 192.47461 L 115.82617 192.47461 L 115.82617 202.55664 L 93.140625 202.55664 L 93.140625 247.92773 L 76.335938 247.92773 L 76.335938 202.55664 L 53.650391 202.55664 L 53.650391 192.47461 z M 131.80273 192.47461 L 152.80859 192.47461 L 176.75391 247.92773 L 160.28516 247.92773 L 155.24414 236.16406 L 129.36523 236.16406 L 124.32422 247.92773 L 107.85742 247.92773 L 131.80273 192.47461 z M 183.0625 192.47461 L 224.23242 192.47461 C 233.75485 192.47461 238.51562 196.28245 238.51562 203.90039 L 238.51562 208.77344 C 238.51562 213.47864 236.69561 216.72707 233.05469 218.51953 C 237.25576 220.19996 239.35742 223.5902 239.35742 228.6875 L 239.35742 236.50195 C 239.35742 244.11989 234.59469 247.92773 225.07227 247.92773 L 183.0625 247.92773 L 183.0625 192.47461 z M 199.86719 202.55664 L 199.86719 213.89844 L 218.77148 213.89844 C 220.73198 213.89844 221.71289 213.11526 221.71289 211.54688 L 221.71289 204.9082 C 221.71289 203.3398 220.73198 202.55664 218.77148 202.55664 L 199.86719 202.55664 z M 142.30469 206.33789 L 133.73438 226.08203 L 150.875 226.08203 L 142.30469 206.33789 z M 356.80273 220.20117 L 430.82227 242.92969 L 356.80273 265.6582 L 356.80273 248.23242 L 265.46094 248.23242 L 265.46094 237.625 L 356.80273 237.625 L 356.80273 220.20117 z M 199.86719 223.98242 L 199.86719 237.8457 L 219.61133 237.8457 C 221.57183 237.8457 222.55273 237.06059 222.55273 235.49219 L 222.55273 226.33398 C 222.55273 224.76558 221.57183 223.98242 219.61133 223.98242 L 199.86719 223.98242 z" transform="matrix(0.26458333,0,0,0.26458333,0,164.70832)" style="opacity:1;fill:#000;fill-opacity:1;stroke:none;stroke-width:18.89763832;stroke-linecap:square;stroke-linejoin:round;stroke-miterlimit:4.30000019;stroke-dasharray:none;stroke-opacity:1;paint-order:markers stroke fill"/><path id="rect6592-9" d="m 8.4157475,250.49053 v 10.42365 c 0,9.40658 7.5727535,16.97933 16.9793255,16.97933 h 81.501487 c 9.40657,0 16.97932,-7.57275 16.97932,-16.97933 v -10.42365 c 0,9.40657 -7.57275,16.97984 -16.97932,16.97984 H 25.395073 c -9.406572,0 -16.9793255,-7.57327 -16.9793255,-16.97984 z" style="opacity:1;fill:#000;fill-opacity:1;stroke:none;stroke-width:5;stroke-linecap:square;stroke-linejoin:round;stroke-miterlimit:4.30000019;stroke-dasharray:none;stroke-opacity:1;paint-order:markers stroke fill"/></g></svg>