<svg xmlns="http://www.w3.org/2000/svg" xmlns:svg="http://www.w3.org/2000/svg" id="svg8" width="500" height="500" version="1.1" viewBox="0 0 132.292 132.292"><metadata id="metadata5"/><g id="layer1" transform="translate(0,-164.70832)"><path id="path1225" d="M 250 148.49805 C 193.94219 148.49831 148.49829 193.94224 148.49805 250 C 148.49829 306.0578 193.94219 351.50169 250 351.50195 C 306.05781 351.50169 351.50171 306.0578 351.50195 250 C 351.50171 193.94224 306.05781 148.49831 250 148.49805 z M 197.6543 193.36328 L 231.97852 193.36328 L 231.97852 286.04102 L 302.3457 286.04102 L 302.3457 306.63672 L 197.6543 306.63672 L 197.6543 193.36328 z" transform="matrix(0.26458333,0,0,0.26458333,0,164.70832)" style="opacity:1;fill:#000;fill-opacity:1;stroke:none;stroke-width:20.63994408;stroke-linecap:square;stroke-linejoin:round;stroke-miterlimit:4.30000019;stroke-dasharray:none;stroke-opacity:1;paint-order:markers stroke fill"/><path id="path1225-8" d="m 66.14584,192.07947 a 38.774647,38.77464 0 0 0 -38.774684,38.77468 38.774647,38.77464 0 0 0 38.774684,38.77468 38.774647,38.77464 0 0 0 38.77467,-38.77468 38.774647,38.77464 0 0 0 -38.77467,-38.77468 z m 0,7.6214 A 31.153582,31.153577 0 0 1 97.299114,230.85415 31.153582,31.153577 0 0 1 66.14584,262.00743 31.153582,31.153577 0 0 1 34.992562,230.85415 31.153582,31.153577 0 0 1 66.14584,199.70087 Z" style="opacity:1;fill:#000;fill-opacity:1;stroke:none;stroke-width:7.88461637;stroke-linecap:square;stroke-linejoin:round;stroke-miterlimit:4.30000019;stroke-dasharray:none;stroke-opacity:1;paint-order:markers stroke fill"/><path id="path967-7-3" d="M 23.112607,257.41398 -5.0000003e-7,230.85415 23.112607,204.29432 v 0.26492 a 47.442696,47.442687 0 0 0 -7.98452,26.29491 47.442696,47.442687 0 0 0 7.98452,26.28162 z" style="fill:#000;fill-opacity:1;fill-rule:evenodd;stroke:none;stroke-width:.26600963px;stroke-linecap:butt;stroke-linejoin:miter;stroke-opacity:1"/><path id="path967-7-3-2" d="m 109.17906,257.41398 23.11261,-26.55983 -23.11261,-26.55983 v 0.26492 a 47.442697,47.442686 0 0 1 7.98452,26.29491 47.442697,47.442686 0 0 1 -7.98452,26.28162 z" style="fill:#000;fill-opacity:1;fill-rule:evenodd;stroke:none;stroke-width:.26600963px;stroke-linecap:butt;stroke-linejoin:miter;stroke-opacity:1"/><path id="path967-7-3-9" d="m 92.705665,273.88738 -26.55983,23.11261 -26.55983,-23.11261 h 0.26492 a 47.442686,47.442697 0 0 0 26.29491,7.98452 47.442686,47.442697 0 0 0 26.28162,-7.98452 z" style="fill:#000;fill-opacity:1;fill-rule:evenodd;stroke:none;stroke-width:.26600963px;stroke-linecap:butt;stroke-linejoin:miter;stroke-opacity:1"/><path id="path967-7-3-2-1" d="m 92.705665,187.82092 -26.55983,-23.11261 -26.55983,23.11261 h 0.26492 a 47.442686,47.442697 0 0 1 26.29491,-7.98452 47.442686,47.442697 0 0 1 26.28162,7.98452 z" style="fill:#000;fill-opacity:1;fill-rule:evenodd;stroke:none;stroke-width:.26600963px;stroke-linecap:butt;stroke-linejoin:miter;stroke-opacity:1"/></g></svg>