<svg xmlns="http://www.w3.org/2000/svg" xmlns:svg="http://www.w3.org/2000/svg" id="svg8" width="500" height="500" version="1.1" viewBox="0 0 132.292 132.292"><metadata id="metadata5"/><g id="layer1" transform="translate(0,-164.70832)"><ellipse id="path1225" cx="66.146" cy="230.854" rx="34.631" ry="34.631" style="opacity:1;fill:#000;fill-opacity:1;stroke:none;stroke-width:7.04194736;stroke-linecap:square;stroke-linejoin:round;stroke-miterlimit:4.30000019;stroke-dasharray:none;stroke-opacity:1;paint-order:markers stroke fill"/><path id="path1225-8" d="m 66.145842,180.85415 a 49.999958,49.999949 0 0 0 -50.000006,50 49.999958,49.999949 0 0 0 50.000006,50 49.999958,49.999949 0 0 0 49.999988,-50 49.999958,49.999949 0 0 0 -49.999988,-50 z m 0,9.82781 a 40.172585,40.172579 0 0 1 40.172188,40.17219 40.172585,40.172579 0 0 1 -40.172188,40.17219 40.172585,40.172579 0 0 1 -40.172193,-40.17219 40.172585,40.172579 0 0 1 40.172193,-40.17219 z" style="opacity:1;fill:#000;fill-opacity:1;stroke:none;stroke-width:10.16722298;stroke-linecap:square;stroke-linejoin:round;stroke-miterlimit:4.30000019;stroke-dasharray:none;stroke-opacity:1;paint-order:markers stroke fill"/><flowRoot style="font-style:normal;font-weight:400;font-size:40px;line-height:25px;font-family:sans-serif;text-align:center;letter-spacing:0;word-spacing:0;text-anchor:middle;fill:#000;fill-opacity:1;stroke:none;stroke-width:1px;stroke-linecap:butt;stroke-linejoin:miter;stroke-opacity:1" id="flowRoot1386" transform="matrix(0.26458333,0,0,0.26458333,0,164.70832)" xml:space="preserve"><flowRegion id="flowRegion1388"><rect id="rect1390" width="105.056" height="131.32" x="200.01" y="200.995"/></flowRegion><flowPara id="flowPara1392">L</flowPara></flowRoot></g></svg>