<svg xmlns="http://www.w3.org/2000/svg" xmlns:svg="http://www.w3.org/2000/svg" id="svg8" width="500" height="500" version="1.1" viewBox="0 0 132.292 132.292"><metadata id="metadata5"/><g id="layer1" transform="translate(0,-164.70832)"><path id="path1225" d="M 66.145833,203.1498 A 27.704487,27.70448 0 0 0 38.441478,230.85415 27.704487,27.70448 0 0 0 66.145833,258.55851 27.704487,27.70448 0 0 0 93.850189,230.85415 27.704487,27.70448 0 0 0 66.145833,203.1498 Z m -14.020848,14.29329 h 19.913614 c 4.605867,0 6.908934,1.8422 6.908934,5.52689 v 5.60835 c 0,3.2512 -1.828784,5.0934 -5.486383,5.52689 l 6.705532,10.16 h -8.778378 l -6.705534,-10.16 h -4.429703 v 10.16 h -8.128082 z m 8.128082,4.8766 v 6.90892 h 9.143835 c 0.948264,0 1.422548,-0.3795 1.422548,-1.13812 v -4.63268 c 0,-0.75861 -0.474284,-1.13812 -1.422548,-1.13812 z" style="opacity:1;fill:#000;fill-opacity:1;stroke:none;stroke-width:5.6335578;stroke-linecap:square;stroke-linejoin:round;stroke-miterlimit:4.30000019;stroke-dasharray:none;stroke-opacity:1;paint-order:markers stroke fill"/><path id="path1225-8" d="m 66.145841,190.85415 a 39.999966,39.999959 0 0 0 -40.000005,40 39.999966,39.999959 0 0 0 40.000005,40 39.999966,39.999959 0 0 0 39.999989,-40 39.999966,39.999959 0 0 0 -39.999989,-40 z m 0,7.86225 a 32.138068,32.138063 0 0 1 32.13775,32.13775 32.138068,32.138063 0 0 1 -32.13775,32.13775 32.138068,32.138063 0 0 1 -32.137755,-32.13775 32.138068,32.138063 0 0 1 32.137755,-32.13775 z" style="opacity:1;fill:#000;fill-opacity:1;stroke:none;stroke-width:8.13377857;stroke-linecap:square;stroke-linejoin:round;stroke-miterlimit:4.30000019;stroke-dasharray:none;stroke-opacity:1;paint-order:markers stroke fill"/><path id="rect8342" d="m 6.2880261,222.51096 16.4181409,5.11403 v 6.45834 l -16.4181409,5.11403 z" style="opacity:1;fill:#000;fill-opacity:1;stroke:none;stroke-width:6.97993183;stroke-linecap:square;stroke-linejoin:round;stroke-miterlimit:4.30000019;stroke-dasharray:none;stroke-opacity:1;paint-order:markers stroke fill"/><path id="rect8342-7" d="m 126.00365,222.51096 -16.41815,5.11403 v 6.45834 l 16.41815,5.11403 z" style="opacity:1;fill:#000;fill-opacity:1;stroke:none;stroke-width:6.97993183;stroke-linecap:square;stroke-linejoin:round;stroke-miterlimit:4.30000019;stroke-dasharray:none;stroke-opacity:1;paint-order:markers stroke fill"/><path id="rect8342-2" d="m 57.802634,290.71198 5.114033,-16.41815 h 6.458336 l 5.114034,16.41815 z" style="opacity:1;fill:#000;fill-opacity:1;stroke:none;stroke-width:6.97993183;stroke-linecap:square;stroke-linejoin:round;stroke-miterlimit:4.30000019;stroke-dasharray:none;stroke-opacity:1;paint-order:markers stroke fill"/><path id="rect8342-7-0" d="m 57.802634,170.99634 5.114033,16.41816 h 6.458336 l 5.114034,-16.41815 z" style="opacity:1;fill:#000;fill-opacity:1;stroke:none;stroke-width:6.97993183;stroke-linecap:square;stroke-linejoin:round;stroke-miterlimit:4.30000019;stroke-dasharray:none;stroke-opacity:1;paint-order:markers stroke fill"/><path id="rect8342-22" d="m 17.920442,267.2805 15.225544,-7.99322 4.566732,4.56673 -7.993214,15.22554 z" style="opacity:1;fill:#000;fill-opacity:1;stroke:none;stroke-width:6.97993183;stroke-linecap:square;stroke-linejoin:round;stroke-miterlimit:4.30000019;stroke-dasharray:none;stroke-opacity:1;paint-order:markers stroke fill"/><path id="rect8342-7-8" d="m 102.57217,182.62877 -7.993217,15.22554 4.566732,4.56674 15.225545,-7.99323 z" style="opacity:1;fill:#000;fill-opacity:1;stroke:none;stroke-width:6.97993183;stroke-linecap:square;stroke-linejoin:round;stroke-miterlimit:4.30000019;stroke-dasharray:none;stroke-opacity:1;paint-order:markers stroke fill"/><path id="rect8342-2-9" d="m 102.57217,279.07956 -7.993215,-15.22555 4.566735,-4.56673 15.22556,7.99322 z" style="opacity:1;fill:#000;fill-opacity:1;stroke:none;stroke-width:6.97993183;stroke-linecap:square;stroke-linejoin:round;stroke-miterlimit:4.30000019;stroke-dasharray:none;stroke-opacity:1;paint-order:markers stroke fill"/><path id="rect8342-7-0-7" d="m 17.920433,194.42782 15.225556,7.99323 4.566734,-4.56673 -7.993213,-15.22555 z" style="opacity:1;fill:#000;fill-opacity:1;stroke:none;stroke-width:6.97993183;stroke-linecap:square;stroke-linejoin:round;stroke-miterlimit:4.30000019;stroke-dasharray:none;stroke-opacity:1;paint-order:markers stroke fill"/></g></svg>