<svg xmlns="http://www.w3.org/2000/svg" xmlns:svg="http://www.w3.org/2000/svg" id="svg8" width="500" height="500" version="1.1" viewBox="0 0 132.292 132.292"><metadata id="metadata5"/><g id="layer1" transform="translate(0,-164.70832)"><path id="path1225" d="M 250,148.49805 C 193.94219,148.49831 148.49829,193.94224 148.49805,250 148.49829,306.0578 193.94219,351.50169 250,351.50195 306.05781,351.50169 351.50171,306.0578 351.50195,250 351.50171,193.94224 306.05781,148.49831 250,148.49805 Z" transform="matrix(0.26458333,0,0,0.26458333,0,164.70832)" style="opacity:1;fill:#000;fill-opacity:1;stroke:none;stroke-width:20.63994408;stroke-linecap:square;stroke-linejoin:round;stroke-miterlimit:4.30000019;stroke-dasharray:none;stroke-opacity:1;paint-order:markers stroke fill"/><path id="path1225-8" d="m 66.14584,192.07947 a 38.774647,38.77464 0 0 0 -38.774684,38.77468 38.774647,38.77464 0 0 0 38.774684,38.77468 38.774647,38.77464 0 0 0 38.77467,-38.77468 38.774647,38.77464 0 0 0 -38.77467,-38.77468 z m 0,7.6214 A 31.153582,31.153577 0 0 1 97.299114,230.85415 31.153582,31.153577 0 0 1 66.14584,262.00743 31.153582,31.153577 0 0 1 34.992562,230.85415 31.153582,31.153577 0 0 1 66.14584,199.70087 Z" style="opacity:1;fill:#000;fill-opacity:1;stroke:none;stroke-width:7.88461637;stroke-linecap:square;stroke-linejoin:round;stroke-miterlimit:4.30000019;stroke-dasharray:none;stroke-opacity:1;paint-order:markers stroke fill"/><path id="path967-7-3" d="m 99.345623,268.10923 -33.19979,28.89076 -33.19979,-28.89076 h 0.33115 a 59.303359,59.30337 0 0 0 32.86864,9.98065 59.303359,59.30337 0 0 0 32.85203,-9.98065 z" style="fill:#000;fill-opacity:1;fill-rule:evenodd;stroke:none;stroke-width:.33251202px;stroke-linecap:butt;stroke-linejoin:miter;stroke-opacity:1"/></g></svg>