<svg xmlns="http://www.w3.org/2000/svg" xmlns:svg="http://www.w3.org/2000/svg" id="svg8" width="500" height="500" version="1.1" viewBox="0 0 132.292 132.292"><metadata id="metadata5"/><g id="layer1" transform="translate(0,-164.70832)"><path id="path1225" d="m 102.36276,217.00197 a 13.852244,13.85224 0 0 0 -13.852179,13.85217 13.852244,13.85224 0 0 0 13.852179,13.85218 13.852244,13.85224 0 0 0 13.85218,-13.85218 13.852244,13.85224 0 0 0 -13.85218,-13.85217 z m -7.010425,7.14664 h 9.956805 c 2.30294,0 3.45447,0.9211 3.45447,2.76345 v 2.80417 c 0,1.6256 -0.91439,2.54671 -2.74319,2.76345 l 3.35276,5.08 h -4.38919 l -3.35276,-5.08 h -2.214854 v 5.08 h -4.064041 z m 4.064041,2.4383 v 3.45446 h 4.571914 c 0.47413,0 0.71128,-0.18975 0.71128,-0.56906 v -2.31633 c 0,-0.37931 -0.23715,-0.56906 -0.71128,-0.56906 z" style="opacity:1;fill:#000;fill-opacity:1;stroke:none;stroke-width:2.8167789;stroke-linecap:square;stroke-linejoin:round;stroke-miterlimit:4.30000019;stroke-dasharray:none;stroke-opacity:1;paint-order:markers stroke fill"/><path id="path1225-8" d="m 102.36276,210.85414 a 19.999983,19.999979 0 0 0 -20,20 19.999983,19.999979 0 0 0 20,20 19.999983,19.999979 0 0 0 20,-20 19.999983,19.999979 0 0 0 -20,-20 z m 0,3.93113 a 16.069034,16.069031 0 0 1 16.06888,16.06887 16.069034,16.069031 0 0 1 -16.06888,16.06888 16.069034,16.069031 0 0 1 -16.068875,-16.06888 16.069034,16.069031 0 0 1 16.068875,-16.06887 z" style="opacity:1;fill:#000;fill-opacity:1;stroke:none;stroke-width:4.06688929;stroke-linecap:square;stroke-linejoin:round;stroke-miterlimit:4.30000019;stroke-dasharray:none;stroke-opacity:1;paint-order:markers stroke fill"/><path id="rect8342" d="m 72.433855,226.68255 8.209071,2.55702 v 3.22916 l -8.209071,2.55702 z" style="opacity:1;fill:#000;fill-opacity:1;stroke:none;stroke-width:3.48996615;stroke-linecap:square;stroke-linejoin:round;stroke-miterlimit:4.30000019;stroke-dasharray:none;stroke-opacity:1;paint-order:markers stroke fill"/><path id="rect8342-7" d="m 132.29167,226.68255 -8.20908,2.55702 v 3.22916 l 8.20908,2.55702 z" style="opacity:1;fill:#000;fill-opacity:1;stroke:none;stroke-width:3.48996615;stroke-linecap:square;stroke-linejoin:round;stroke-miterlimit:4.30000019;stroke-dasharray:none;stroke-opacity:1;paint-order:markers stroke fill"/><path id="rect8342-2" d="m 98.191159,260.78306 2.557021,-8.20908 h 3.22916 l 2.55702,8.20908 z" style="opacity:1;fill:#000;fill-opacity:1;stroke:none;stroke-width:3.48996615;stroke-linecap:square;stroke-linejoin:round;stroke-miterlimit:4.30000019;stroke-dasharray:none;stroke-opacity:1;paint-order:markers stroke fill"/><path id="rect8342-7-0" d="m 98.191159,200.92524 2.557021,8.20908 h 3.22916 l 2.55702,-8.20908 z" style="opacity:1;fill:#000;fill-opacity:1;stroke:none;stroke-width:3.48996615;stroke-linecap:square;stroke-linejoin:round;stroke-miterlimit:4.30000019;stroke-dasharray:none;stroke-opacity:1;paint-order:markers stroke fill"/><path id="rect8342-22" d="m 78.250063,249.06732 7.612772,-3.99661 2.283366,2.28337 -3.996607,7.61276 z" style="opacity:1;fill:#000;fill-opacity:1;stroke:none;stroke-width:3.48996615;stroke-linecap:square;stroke-linejoin:round;stroke-miterlimit:4.30000019;stroke-dasharray:none;stroke-opacity:1;paint-order:markers stroke fill"/><path id="rect8342-7-8" d="m 120.57593,206.74145 -3.99661,7.61277 2.28337,2.28337 7.61277,-3.99661 z" style="opacity:1;fill:#000;fill-opacity:1;stroke:none;stroke-width:3.48996615;stroke-linecap:square;stroke-linejoin:round;stroke-miterlimit:4.30000019;stroke-dasharray:none;stroke-opacity:1;paint-order:markers stroke fill"/><path id="rect8342-2-9" d="m 120.57593,254.96685 -3.99661,-7.61277 2.28337,-2.28337 7.61278,3.99661 z" style="opacity:1;fill:#000;fill-opacity:1;stroke:none;stroke-width:3.48996615;stroke-linecap:square;stroke-linejoin:round;stroke-miterlimit:4.30000019;stroke-dasharray:none;stroke-opacity:1;paint-order:markers stroke fill"/><path id="rect8342-7-0-7" d="m 78.250059,212.64098 7.612778,3.99661 2.283367,-2.28336 -3.996607,-7.61278 z" style="opacity:1;fill:#000;fill-opacity:1;stroke:none;stroke-width:3.48996615;stroke-linecap:square;stroke-linejoin:round;stroke-miterlimit:4.30000019;stroke-dasharray:none;stroke-opacity:1;paint-order:markers stroke fill"/><path id="path1225-6" d="m 29.928905,217.00197 a 13.852243,13.852241 0 0 0 -13.852179,13.85218 13.852243,13.852241 0 0 0 13.852179,13.85217 13.852243,13.852241 0 0 0 13.85218,-13.85217 13.852243,13.852241 0 0 0 -13.85218,-13.85218 z m -6.19766,7.14664 h 4.06404 v 10.97276 h 8.33128 v 2.43831 h -12.39532 z" style="opacity:1;fill:#000;fill-opacity:1;stroke:none;stroke-width:2.8167789;stroke-linecap:square;stroke-linejoin:round;stroke-miterlimit:4.30000019;stroke-dasharray:none;stroke-opacity:1;paint-order:markers stroke fill"/><path id="path1225-8-7" d="m 29.928905,210.85415 a 19.999984,19.99998 0 0 0 -20,20 19.999984,19.99998 0 0 0 20,20 19.999984,19.99998 0 0 0 20,-20 19.999984,19.99998 0 0 0 -20,-20 z m 0,3.93112 a 16.069035,16.069032 0 0 1 16.06888,16.06888 16.069035,16.069032 0 0 1 -16.06888,16.06887 16.069035,16.069032 0 0 1 -16.068875,-16.06887 16.069035,16.069032 0 0 1 16.068875,-16.06888 z" style="opacity:1;fill:#000;fill-opacity:1;stroke:none;stroke-width:4.06688929;stroke-linecap:square;stroke-linejoin:round;stroke-miterlimit:4.30000019;stroke-dasharray:none;stroke-opacity:1;paint-order:markers stroke fill"/><path id="rect8342-5" d="m 0,226.68255 8.20907,2.55702 v 3.22916 L 0,235.02575 Z" style="opacity:1;fill:#000;fill-opacity:1;stroke:none;stroke-width:3.48996592;stroke-linecap:square;stroke-linejoin:round;stroke-miterlimit:4.30000019;stroke-dasharray:none;stroke-opacity:1;paint-order:markers stroke fill"/><path id="rect8342-7-3" d="m 59.857815,226.68255 -8.20908,2.55702 v 3.22916 l 8.20908,2.55702 z" style="opacity:1;fill:#000;fill-opacity:1;stroke:none;stroke-width:3.48996592;stroke-linecap:square;stroke-linejoin:round;stroke-miterlimit:4.30000019;stroke-dasharray:none;stroke-opacity:1;paint-order:markers stroke fill"/><path id="rect8342-2-5" d="m 25.757304,260.78306 2.557021,-8.20908 h 3.22916 l 2.55702,8.20908 z" style="opacity:1;fill:#000;fill-opacity:1;stroke:none;stroke-width:3.48996592;stroke-linecap:square;stroke-linejoin:round;stroke-miterlimit:4.30000019;stroke-dasharray:none;stroke-opacity:1;paint-order:markers stroke fill"/><path id="rect8342-7-0-6" d="m 25.757304,200.92524 2.557021,8.20908 h 3.22916 l 2.55702,-8.20907 z" style="opacity:1;fill:#000;fill-opacity:1;stroke:none;stroke-width:3.48996592;stroke-linecap:square;stroke-linejoin:round;stroke-miterlimit:4.30000019;stroke-dasharray:none;stroke-opacity:1;paint-order:markers stroke fill"/><path id="rect8342-22-2" d="m 5.816208,249.06732 7.612772,-3.99661 2.283366,2.28337 -3.996607,7.61277 z" style="opacity:1;fill:#000;fill-opacity:1;stroke:none;stroke-width:3.48996592;stroke-linecap:square;stroke-linejoin:round;stroke-miterlimit:4.30000019;stroke-dasharray:none;stroke-opacity:1;paint-order:markers stroke fill"/><path id="rect8342-7-8-9" d="m 48.142075,206.74145 -3.99661,7.61277 2.28336,2.28337 7.61278,-3.99661 z" style="opacity:1;fill:#000;fill-opacity:1;stroke:none;stroke-width:3.48996592;stroke-linecap:square;stroke-linejoin:round;stroke-miterlimit:4.30000019;stroke-dasharray:none;stroke-opacity:1;paint-order:markers stroke fill"/><path id="rect8342-2-9-1" d="m 48.142075,254.96685 -3.99661,-7.61277 2.28337,-2.28337 7.61278,3.99661 z" style="opacity:1;fill:#000;fill-opacity:1;stroke:none;stroke-width:3.48996592;stroke-linecap:square;stroke-linejoin:round;stroke-miterlimit:4.30000019;stroke-dasharray:none;stroke-opacity:1;paint-order:markers stroke fill"/><path id="rect8342-7-0-7-2" d="m 5.816203,212.64098 7.612778,3.99661 2.283367,-2.28336 -3.996606,-7.61278 z" style="opacity:1;fill:#000;fill-opacity:1;stroke:none;stroke-width:3.48996592;stroke-linecap:square;stroke-linejoin:round;stroke-miterlimit:4.30000019;stroke-dasharray:none;stroke-opacity:1;paint-order:markers stroke fill"/></g></svg>