<svg xmlns="http://www.w3.org/2000/svg" xmlns:svg="http://www.w3.org/2000/svg" id="svg8" width="500" height="500" version="1.1" viewBox="0 0 132.292 132.292"><metadata id="metadata5"/><g id="layer1" transform="translate(0,-164.70832)"><path id="path1225" d="M 66.145833,203.1498 A 27.704487,27.70448 0 0 0 38.441478,230.85415 27.704487,27.70448 0 0 0 66.145833,258.55851 27.704487,27.70448 0 0 0 93.850189,230.85415 27.704487,27.70448 0 0 0 66.145833,203.1498 Z m -12.395316,14.29329 h 8.128082 v 21.94552 h 16.66255 v 4.87661 H 53.750517 Z" style="opacity:1;fill:#000;fill-opacity:1;stroke:none;stroke-width:5.6335578;stroke-linecap:square;stroke-linejoin:round;stroke-miterlimit:4.30000019;stroke-dasharray:none;stroke-opacity:1;paint-order:markers stroke fill"/><path id="path1225-8" d="m 66.145841,190.85415 a 39.999966,39.999959 0 0 0 -40.000005,40 39.999966,39.999959 0 0 0 40.000005,40 39.999966,39.999959 0 0 0 39.999989,-40 39.999966,39.999959 0 0 0 -39.999989,-40 z m 0,7.86225 a 32.138068,32.138063 0 0 1 32.13775,32.13775 32.138068,32.138063 0 0 1 -32.13775,32.13775 32.138068,32.138063 0 0 1 -32.137755,-32.13775 32.138068,32.138063 0 0 1 32.137755,-32.13775 z" style="opacity:1;fill:#000;fill-opacity:1;stroke:none;stroke-width:8.13377857;stroke-linecap:square;stroke-linejoin:round;stroke-miterlimit:4.30000019;stroke-dasharray:none;stroke-opacity:1;paint-order:markers stroke fill"/><path id="path907" d="M 250.55078 24.642578 L 198.57227 51.072266 L 250.55078 77.5 L 250.55078 60.888672 C 354.67508 61.1842 438.8158 145.32491 439.11133 249.44922 L 458.00977 249.44922 C 457.71284 135.11042 364.88956 42.287161 250.55078 41.990234 L 250.55078 24.642578 z" transform="matrix(0.26458333,0,0,0.26458333,0,164.70832)" style="color:#000;font-style:normal;font-variant:normal;font-weight:400;font-stretch:normal;font-size:medium;line-height:normal;font-family:sans-serif;font-variant-ligatures:normal;font-variant-position:normal;font-variant-caps:normal;font-variant-numeric:normal;font-variant-alternates:normal;font-feature-settings:normal;text-indent:0;text-align:start;text-decoration:none;text-decoration-line:none;text-decoration-style:solid;text-decoration-color:#000;letter-spacing:normal;word-spacing:normal;text-transform:none;writing-mode:lr-tb;direction:ltr;text-orientation:mixed;dominant-baseline:auto;baseline-shift:baseline;text-anchor:start;white-space:normal;shape-padding:0;clip-rule:nonzero;display:inline;overflow:visible;visibility:visible;opacity:1;isolation:auto;mix-blend-mode:normal;color-interpolation:sRGB;color-interpolation-filters:linearRGB;solid-color:#000;solid-opacity:1;vector-effect:none;fill:#000;fill-opacity:1;fill-rule:nonzero;stroke:none;stroke-width:18.89763832;stroke-linecap:square;stroke-linejoin:round;stroke-miterlimit:4.30000019;stroke-dasharray:none;stroke-dashoffset:0;stroke-opacity:1;paint-order:markers stroke fill;color-rendering:auto;image-rendering:auto;shape-rendering:auto;text-rendering:auto;enable-background:accumulate"/><path id="path907-3" d="m 66.000106,290.47996 13.752647,-6.99285 -13.752647,-6.99234 v 4.39508 c -27.549555,-0.0782 -49.81179,-22.34042 -49.88998,-49.88998 h -5.00021 c 0.07856,30.25214 24.638054,54.81163 54.89019,54.89019 z" style="color:#000;font-style:normal;font-variant:normal;font-weight:400;font-stretch:normal;font-size:medium;line-height:normal;font-family:sans-serif;font-variant-ligatures:normal;font-variant-position:normal;font-variant-caps:normal;font-variant-numeric:normal;font-variant-alternates:normal;font-feature-settings:normal;text-indent:0;text-align:start;text-decoration:none;text-decoration-line:none;text-decoration-style:solid;text-decoration-color:#000;letter-spacing:normal;word-spacing:normal;text-transform:none;writing-mode:lr-tb;direction:ltr;text-orientation:mixed;dominant-baseline:auto;baseline-shift:baseline;text-anchor:start;white-space:normal;shape-padding:0;clip-rule:nonzero;display:inline;overflow:visible;visibility:visible;opacity:1;isolation:auto;mix-blend-mode:normal;color-interpolation:sRGB;color-interpolation-filters:linearRGB;solid-color:#000;solid-opacity:1;vector-effect:none;fill:#000;fill-opacity:1;fill-rule:nonzero;stroke:none;stroke-width:5;stroke-linecap:square;stroke-linejoin:round;stroke-miterlimit:4.30000019;stroke-dasharray:none;stroke-dashoffset:0;stroke-opacity:1;paint-order:markers stroke fill;color-rendering:auto;image-rendering:auto;shape-rendering:auto;text-rendering:auto;enable-background:accumulate"/></g></svg>