<svg xmlns="http://www.w3.org/2000/svg" xmlns:svg="http://www.w3.org/2000/svg" id="svg8" width="500" height="500" version="1.1" viewBox="0 0 132.292 132.292"><metadata id="metadata5"/><g id="layer1" transform="translate(0,-164.70832)"><path id="path1225" d="M 66.145834,203.99846 A 26.855815,26.855808 0 0 0 39.290146,230.85415 26.855815,26.855808 0 0 0 66.145834,257.70984 26.855815,26.855808 0 0 0 93.001521,230.85415 26.855815,26.855808 0 0 0 66.145834,203.99846 Z M 52.554486,217.8539 h 19.3036 c 4.464775,0 6.697292,1.78578 6.697292,5.3576 v 5.43654 c 0,3.1516 -1.772762,4.93738 -5.318318,5.35759 l 6.500121,9.84877 h -8.509469 l -6.500124,-9.84877 h -4.294007 v 9.84877 h -7.879095 z m 7.879095,4.72722 v 6.69729 h 8.863731 c 0.919217,0 1.378971,-0.36788 1.378971,-1.10325 v -4.49078 c 0,-0.73537 -0.459754,-1.10326 -1.378971,-1.10326 z" style="opacity:1;fill:#000;fill-opacity:1;stroke:none;stroke-width:5.46098518;stroke-linecap:square;stroke-linejoin:round;stroke-miterlimit:4.30000019;stroke-dasharray:none;stroke-opacity:1;paint-order:markers stroke fill"/><path id="path1225-8" d="m 66.14584,192.07947 a 38.774647,38.77464 0 0 0 -38.774684,38.77468 38.774647,38.77464 0 0 0 38.774684,38.77468 38.774647,38.77464 0 0 0 38.77467,-38.77468 38.774647,38.77464 0 0 0 -38.77467,-38.77468 z m 0,7.6214 A 31.153582,31.153577 0 0 1 97.299114,230.85415 31.153582,31.153577 0 0 1 66.14584,262.00743 31.153582,31.153577 0 0 1 34.992562,230.85415 31.153582,31.153577 0 0 1 66.14584,199.70087 Z" style="opacity:1;fill:#000;fill-opacity:1;stroke:none;stroke-width:7.88461637;stroke-linecap:square;stroke-linejoin:round;stroke-miterlimit:4.30000019;stroke-dasharray:none;stroke-opacity:1;paint-order:markers stroke fill"/><path id="path967" d="M 28.890758,197.65436 0,230.85415 28.890758,264.05394 v -0.33115 a 59.30337,59.303358 0 0 1 -9.980644,-32.86864 59.30337,59.303358 0 0 1 9.980644,-32.85203 z" style="fill:#000;fill-opacity:1;fill-rule:evenodd;stroke:none;stroke-width:.33251199px;stroke-linecap:butt;stroke-linejoin:miter;stroke-opacity:1"/></g></svg>