<svg xmlns="http://www.w3.org/2000/svg" xmlns:svg="http://www.w3.org/2000/svg" id="svg8" width="500" height="500" version="1.1" viewBox="0 0 132.292 132.292"><defs id="defs2"><rect id="rect23850" width="463.955" height="453.971" x="149.548" y="177.661"/><rect id="rect5407" width="361.721" height="326.916" x="147.252" y="156.083"/></defs><metadata id="metadata5"/><g id="layer1" transform="translate(0,-164.70832)"><path id="path21106" d="M 250,61.402344 A 188.59697,188.59697 0 0 0 61.402344,250 188.59697,188.59697 0 0 0 250,438.59766 188.59697,188.59697 0 0 0 438.59766,250 188.59697,188.59697 0 0 0 250,61.402344 Z M 148.66602,162 h 59.46679 L 250,212.40039 291.86719,162 h 59.46679 L 279.86719,248.40039 354,338 H 294.5332 L 250,284.40039 205.4668,338 H 146 l 74.13281,-89.59961 z" transform="matrix(0.26458333,0,0,0.26458333,0,164.70832)" style="fill:#010101;fill-opacity:1;stroke-width:3.65171;stroke-dashoffset:4.49997"/></g></svg>