<svg xmlns="http://www.w3.org/2000/svg" xmlns:svg="http://www.w3.org/2000/svg" id="svg8" width="500" height="500" version="1.1" viewBox="0 0 132.292 132.292"><defs id="defs2"><rect id="rect5337" width="468.162" height="102.723" x="18.92" y="-58.63"/></defs><metadata id="metadata5"/><g id="layer1" transform="translate(0,-164.70832)"><path style="font-style:normal;font-variant:normal;font-weight:400;font-stretch:normal;font-size:85.3333px;line-height:16.1658px;font-family:sans-serif;-inkscape-font-specification:PromptFont;text-align:center;letter-spacing:0;word-spacing:0;text-anchor:middle;white-space:pre;display:inline;fill:#000;fill-opacity:1;stroke:none;stroke-width:.194386px;stroke-linecap:butt;stroke-linejoin:miter;stroke-opacity:1" id="path1503" d="m 1.3738522,195.53844 v -9.95308 q 0,-3.48871 4.3608839,-3.48871 h 8.9782909 q 4.360884,0 4.360884,3.48871 v 9.95308 q 0,3.4887 -4.360884,3.4887 H 5.7347361 q -4.3608839,0 -4.3608839,-3.4887 z m 5.1304517,-0.30783 q 0,0.71826 0.8978293,0.71826 H 13.04563 q 0.897829,0 0.897829,-0.71826 v -9.33742 q 0,-0.71827 -0.897829,-0.71827 H 7.4021332 q -0.8978293,0 -0.8978293,0.71827 z"/><path style="font-style:normal;font-variant:normal;font-weight:400;font-stretch:normal;font-size:85.3333px;line-height:16.1658px;font-family:sans-serif;-inkscape-font-specification:PromptFont;text-align:center;letter-spacing:0;word-spacing:0;text-anchor:middle;white-space:pre;fill:#000;fill-opacity:1;stroke:none;stroke-width:.194386px;stroke-linecap:butt;stroke-linejoin:miter;stroke-opacity:1" id="path1505" d="m 22.665225,199.02714 v -16.93049 h 12.569608 q 4.360884,0 4.360884,3.48871 v 3.92479 q 0,3.48871 -4.360884,3.48871 h -7.439156 v 6.02828 z m 5.130452,-9.10655 h 5.771758 q 0.89783,0 0.89783,-0.71826 v -3.30914 q 0,-0.71827 -0.89783,-0.71827 h -5.771758 z"/><path style="font-style:normal;font-variant:normal;font-weight:400;font-stretch:normal;font-size:85.3333px;line-height:16.1658px;font-family:sans-serif;-inkscape-font-specification:PromptFont;text-align:center;letter-spacing:0;word-spacing:0;text-anchor:middle;white-space:pre;fill:#000;fill-opacity:1;stroke:none;stroke-width:.194386px;stroke-linecap:butt;stroke-linejoin:miter;stroke-opacity:1" id="path1507" d="m 41.39139,185.17492 v -3.07827 h 18.982675 v 3.07827 h -6.926113 v 13.85222 h -5.130449 v -13.85222 z"/><path style="font-style:normal;font-variant:normal;font-weight:400;font-stretch:normal;font-size:85.3333px;line-height:16.1658px;font-family:sans-serif;-inkscape-font-specification:PromptFont;text-align:center;letter-spacing:0;word-spacing:0;text-anchor:middle;white-space:pre;fill:#000;fill-opacity:1;stroke:none;stroke-width:.194386px;stroke-linecap:butt;stroke-linejoin:miter;stroke-opacity:1" id="path1509" d="m 62.682784,199.02714 v -16.93049 h 5.130452 v 16.93049 z"/><path style="font-style:normal;font-variant:normal;font-weight:400;font-stretch:normal;font-size:85.3333px;line-height:16.1658px;font-family:sans-serif;-inkscape-font-specification:PromptFont;text-align:center;letter-spacing:0;word-spacing:0;text-anchor:middle;white-space:pre;fill:#000;fill-opacity:1;stroke:none;stroke-width:.194386px;stroke-linecap:butt;stroke-linejoin:miter;stroke-opacity:1" id="path1511" d="m 71.404555,195.53844 v -9.95308 q 0,-3.48871 4.360884,-3.48871 h 8.978292 q 4.360884,0 4.360884,3.48871 v 9.95308 q 0,3.4887 -4.360884,3.4887 h -8.978292 q -4.360884,0 -4.360884,-3.4887 z m 5.130452,-0.30783 q 0,0.71826 0.89783,0.71826 h 5.643496 q 0.89783,0 0.89783,-0.71826 v -9.33742 q 0,-0.71827 -0.89783,-0.71827 h -5.643496 q -0.89783,0 -0.89783,0.71827 z"/><path style="font-style:normal;font-variant:normal;font-weight:400;font-stretch:normal;font-size:85.3333px;line-height:16.1658px;font-family:sans-serif;-inkscape-font-specification:PromptFont;text-align:center;letter-spacing:0;word-spacing:0;text-anchor:middle;white-space:pre;fill:#000;fill-opacity:1;stroke:none;stroke-width:.194386px;stroke-linecap:butt;stroke-linejoin:miter;stroke-opacity:1" id="path1513" d="m 92.695928,199.02714 v -16.93049 h 5.515236 l 7.310896,10.1583 v -10.1583 h 5.13045 v 16.93049 h -5.51524 l -7.31089,-10.15829 v 10.15829 z"/><path style="font-style:normal;font-variant:normal;font-weight:400;font-stretch:normal;font-size:85.3333px;line-height:16.1658px;font-family:sans-serif;-inkscape-font-specification:PromptFont;text-align:center;letter-spacing:0;word-spacing:0;text-anchor:middle;white-space:pre;fill:#000;fill-opacity:1;stroke:none;stroke-width:.194386px;stroke-linecap:butt;stroke-linejoin:miter;stroke-opacity:1" id="path1515" d="m 113.98731,199.02714 v -3.07827 h 10.90221 q 0.89783,0 0.89783,-0.71826 v -2.7961 q 0,-0.71826 -0.89783,-0.71826 h -6.54133 q -4.36088,0 -4.36088,-3.48871 v -2.64218 q 0,-3.48871 4.36088,-3.48871 h 11.287 v 3.07827 h -9.6196 q -0.89783,0 -0.89783,0.71827 v 2.02652 q 0,0.71827 0.89783,0.71827 h 6.54133 q 4.36088,0 4.36088,3.48871 v 3.41175 q 0,3.4887 -4.36088,3.4887 z"/><path id="rect1296" d="m 66.145832,207.37265 c 8.566296,0 15.462627,6.89633 15.462627,15.46263 v 43.73435 c 0,8.5663 -6.896331,15.46263 -15.462627,15.46263 -8.566296,0 -15.462627,-6.89633 -15.462627,-15.46263 v -43.73435 c 0,-8.5663 6.896331,-15.46263 15.462627,-15.46263 z" style="display:inline;fill:#110c00;stroke-width:.37693"/></g></svg>