<svg xmlns="http://www.w3.org/2000/svg" xmlns:svg="http://www.w3.org/2000/svg" id="svg8" width="500" height="500" version="1.1" viewBox="0 0 132.292 132.292"><defs id="defs2"><rect id="rect23850" width="463.955" height="453.971" x="149.548" y="177.661"/><rect id="rect5407" width="361.721" height="326.916" x="147.252" y="156.083"/></defs><metadata id="metadata5"/><g id="layer1" transform="translate(0,-164.70832)"><path id="path21106" d="M 250,61.402344 A 188.59697,188.59697 0 0 0 61.402344,250 188.59697,188.59697 0 0 0 250,438.59766 188.59697,188.59697 0 0 0 438.59766,250 188.59697,188.59697 0 0 0 250,61.402344 Z M 162,162 H 292.66602 C 322.88827,162 338,174.08782 338,198.26562 v 15.4668 c 0,14.93335 -5.77841,25.2447 -17.33398,30.9336 13.33335,5.33334 20,16.08978 20,32.26757 v 24.79883 C 340.66602,325.91023 325.55624,338 295.33398,338 H 162 Z m 53.33398,32 v 36 h 60 c 6.22223,0 9.33204,-2.48901 9.33204,-7.4668 v -21.0664 c 0,-4.97779 -3.10981,-7.4668 -9.33204,-7.4668 z m 0,68 v 44 H 278 c 6.22223,0 9.33398,-2.48901 9.33398,-7.4668 V 269.4668 C 287.33398,264.48901 284.22223,262 278,262 Z" transform="matrix(0.26458333,0,0,0.26458333,0,164.70832)" style="fill:#010101;fill-opacity:1;stroke-width:3.65171;stroke-dashoffset:4.49997"/></g></svg>