<svg xmlns="http://www.w3.org/2000/svg" xmlns:svg="http://www.w3.org/2000/svg" id="svg8" width="500" height="500" version="1.1" viewBox="0 0 132.292 132.292"><defs id="defs2"><rect id="rect23850" width="463.955" height="453.971" x="149.548" y="177.661"/><rect id="rect5407" width="361.721" height="326.916" x="147.252" y="156.083"/></defs><metadata id="metadata5"/><g id="layer1" transform="translate(0,-164.70832)"><path id="path21106" d="M 250,61.402344 A 188.59697,188.59697 0 0 0 61.402344,250 188.59697,188.59697 0 0 0 250,438.59766 188.59697,188.59697 0 0 0 438.59766,250 188.59697,188.59697 0 0 0 250,61.402344 Z M 158.19336,179.49609 H 340.4082 a 14.486872,14.486872 0 0 1 14.49024,14.49024 14.486872,14.486872 0 0 1 -14.49024,14.48437 H 158.19336 a 14.486872,14.486872 0 0 1 -14.49024,-14.48437 14.486872,14.486872 0 0 1 14.49024,-14.49024 z m 1.39453,56.01368 H 341.81055 A 14.486872,14.486872 0 0 1 356.29297,250 14.486872,14.486872 0 0 1 341.81055,264.48438 H 159.58789 A 14.486872,14.486872 0 0 1 145.10547,250 14.486872,14.486872 0 0 1 159.58789,235.50977 Z m -0.62695,56.02148 h 182.21484 a 14.486872,14.486872 0 0 1 14.49024,14.48242 14.486872,14.486872 0 0 1 -14.49024,14.48438 H 158.96094 a 14.486872,14.486872 0 0 1 -14.49024,-14.48438 14.486872,14.486872 0 0 1 14.49024,-14.48242 z" transform="matrix(0.26458333,0,0,0.26458333,0,164.70832)" style="display:inline;fill:#010101;fill-opacity:1;stroke-width:3.65171;stroke-dashoffset:4.49997"/></g></svg>