<svg xmlns="http://www.w3.org/2000/svg" xmlns:svg="http://www.w3.org/2000/svg" id="svg8" width="500" height="500" version="1.1" viewBox="0 0 132.292 132.292"><metadata id="metadata5"/><g id="layer1" transform="translate(0,-164.70832)"><circle style="opacity:1;fill:#000;fill-opacity:1;stroke:none;stroke-width:5.08361578;stroke-linecap:square;stroke-linejoin:round;stroke-miterlimit:4.30000019;stroke-dasharray:none;stroke-opacity:1;paint-order:markers stroke fill" id="path1225" cx="25" cy="230.854" r="25"/><path style="opacity:1;fill:#000;fill-opacity:1;stroke:none;stroke-width:19.21366692;stroke-linecap:square;stroke-linejoin:round;stroke-miterlimit:4.30000019;stroke-dasharray:none;stroke-opacity:1;paint-order:markers stroke fill" id="path1225-8" d="M 250 0 A 94.488189 94.488189 0 0 0 155.51172 94.488281 A 94.488189 94.488189 0 0 0 250 188.97656 A 94.488189 94.488189 0 0 0 344.48828 94.488281 A 94.488189 94.488189 0 0 0 250 0 z M 250 18.572266 A 75.91676 75.91676 0 0 1 325.91602 94.488281 A 75.91676 75.91676 0 0 1 250 170.4043 A 75.91676 75.91676 0 0 1 174.08398 94.488281 A 75.91676 75.91676 0 0 1 250 18.572266 z" transform="matrix(0.26458333,0,0,0.26458333,0,164.70832)"/><path style="opacity:1;fill:#000;fill-opacity:1;stroke:none;stroke-width:5.08361626;stroke-linecap:square;stroke-linejoin:round;stroke-miterlimit:4.30000019;stroke-dasharray:none;stroke-opacity:1;paint-order:markers stroke fill" id="path1225-8-0" d="m 66.145833,246.99994 a 25,25 0 0 0 -25.000024,25.00002 25,25 0 0 0 25.000024,25.00003 25,25 0 0 0 25.000024,-25.00003 25,25 0 0 0 -25.000024,-25.00002 z m 0,4.91391 A 20.086309,20.086309 0 0 1 86.231947,271.99996 20.086309,20.086309 0 0 1 66.145833,292.08608 20.086309,20.086309 0 0 1 46.05972,271.99996 20.086309,20.086309 0 0 1 66.145833,251.91385 Z"/><path style="opacity:1;fill:#000;fill-opacity:1;stroke:none;stroke-width:5.08361673;stroke-linecap:square;stroke-linejoin:round;stroke-miterlimit:4.30000019;stroke-dasharray:none;stroke-opacity:1;paint-order:markers stroke fill" id="path1225-8-0-2" d="m 107.29164,205.85413 a 25,25 0 0 0 -25.000021,25.00002 25,25 0 0 0 25.000021,25.00003 25,25 0 0 0 25.00003,-25.00003 25,25 0 0 0 -25.00003,-25.00002 z m 0,4.91391 a 20.086309,20.086309 0 0 1 20.08612,20.08611 20.086309,20.086309 0 0 1 -20.08612,20.08612 20.086309,20.086309 0 0 1 -20.08611,-20.08612 20.086309,20.086309 0 0 1 20.08611,-20.08611 z"/></g></svg>