<svg xmlns="http://www.w3.org/2000/svg" xmlns:svg="http://www.w3.org/2000/svg" id="svg8" width="500" height="500" version="1.1" viewBox="0 0 132.292 132.292"><defs id="defs2"><rect id="rect23850" width="463.955" height="453.971" x="149.548" y="177.661"/><rect id="rect5407" width="361.721" height="326.916" x="147.252" y="156.083"/></defs><metadata id="metadata5"/><g id="layer1" transform="translate(0,-164.70832)"><path id="path21106" d="M 250,61.402344 A 188.59697,188.59697 0 0 0 61.402344,250 188.59697,188.59697 0 0 0 250,438.59766 188.59697,188.59697 0 0 0 438.59766,250 188.59697,188.59697 0 0 0 250,61.402344 Z m 0.002,73.158206 c 63.58802,0 115.43948,51.84948 115.43946,115.4375 -1e-5,63.58798 -51.85146,115.44531 -115.43946,115.44531 -63.588,0 -115.4453,-51.85733 -115.44531,-115.44531 -2e-5,-63.58802 51.8573,-115.4375 115.44531,-115.4375 z m 0,28.3457 c -48.26846,0 -87.09766,38.8233 -87.09765,87.0918 0,48.26842 38.8292,87.09765 87.09765,87.09765 48.26846,0 87.0918,-38.82923 87.0918,-87.09765 2e-5,-48.2685 -38.82333,-87.0918 -87.0918,-87.0918 z" transform="matrix(0.26458333,0,0,0.26458333,0,164.70832)" style="fill:#010101;fill-opacity:1;stroke-width:3.65171;stroke-dashoffset:4.49997"/></g></svg>