<svg xmlns="http://www.w3.org/2000/svg" xmlns:svg="http://www.w3.org/2000/svg" id="svg8" width="500" height="500" version="1.1" viewBox="0 0 132.292 132.292"><metadata id="metadata5"/><g id="layer1" transform="translate(0,-164.70832)"><path style="fill:#000;fill-opacity:1;fill-rule:evenodd;stroke:none;stroke-width:.26458332px;stroke-linecap:butt;stroke-linejoin:miter;stroke-opacity:1" id="path993-6" d="m 0,257.31384 v -52.91937 h 31.00327 l 26.45968,27.26149 -26.459679,25.65788 z"/><path style="fill:#000;fill-opacity:1;fill-rule:evenodd;stroke:none;stroke-width:.99999994px;stroke-linecap:butt;stroke-linejoin:miter;stroke-opacity:1" id="path993-6-6" d="M 382.82227 149.99414 L 282.81641 253.03125 L 382.82227 350.00586 L 500 350.00586 L 500 149.99414 L 382.82227 149.99414 z M 396.76562 171.20898 L 476.96484 171.20898 L 476.96484 328.79102 L 396.76562 328.79102 L 317.97266 252.38672 L 396.76562 171.20898 z" transform="matrix(0.26458333,0,0,0.26458333,0,164.70832)"/><path style="fill:#000;fill-opacity:1;fill-rule:evenodd;stroke:none;stroke-width:.26458332px;stroke-linecap:butt;stroke-linejoin:miter;stroke-opacity:1" id="path993-6-6-6" d="m 39.68595,195.7116 27.261896,26.45989 25.65787,-26.45989 V 164.70832 H 39.68595 Z m 5.61309,-3.68918 v -21.21938 h 41.693576 v 21.21938 l -20.2153,20.84731 z"/><path style="fill:#000;fill-opacity:1;fill-rule:evenodd;stroke:none;stroke-width:.26458332px;stroke-linecap:butt;stroke-linejoin:miter;stroke-opacity:1" id="path993-6-6-6-1" d="m 39.68595,265.99671 27.261897,-26.45989 25.657871,26.45989 v 31.00328 H 39.68595 Z m 5.61309,3.68918 v 21.21938 h 41.693577 v -21.21938 l -20.2153,-20.84731 z"/></g></svg>