<svg xmlns="http://www.w3.org/2000/svg" xmlns:svg="http://www.w3.org/2000/svg" id="svg8" width="500" height="500" version="1.1" viewBox="0 0 132.292 132.292"><metadata id="metadata5"/><g id="layer1" transform="translate(0,-164.70832)"><path id="rect5066" d="M 47.894531 104.18164 C 31.603551 104.18164 18.488281 117.29691 18.488281 133.58789 L 18.488281 276.93164 C 18.488281 293.22262 31.603551 306.33789 47.894531 306.33789 L 452.10547 306.33789 C 468.39645 306.33789 481.51172 293.22262 481.51172 276.93164 L 481.51172 133.58789 C 481.51172 117.29691 468.39645 104.18164 452.10547 104.18164 L 47.894531 104.18164 z M 250 141.11523 L 324.75195 207.20312 L 298.48828 207.20312 L 298.48828 269.4043 L 201.51367 269.4043 L 201.51367 207.20312 L 175.24805 207.20312 L 250 141.11523 z M 243.93945 219.07812 L 243.93945 243.27148 L 285.35547 243.27148 L 285.35547 219.07812 L 243.93945 219.07812 z" transform="matrix(0.26458333,0,0,0.26458333,0,164.70832)" style="opacity:1;fill:#000;fill-opacity:1;stroke:none;stroke-width:23.1266613;stroke-linecap:square;stroke-linejoin:round;stroke-miterlimit:4.30000019;stroke-dasharray:none;stroke-opacity:1;paint-order:markers stroke fill"/><g id="text5070" aria-label="HOME" style="font-style:normal;font-variant:normal;font-weight:700;font-stretch:normal;font-size:25.86532211px;line-height:16.1658268px;font-family:Xolonium;-inkscape-font-specification:'Xolonium Bold';text-align:center;letter-spacing:0;word-spacing:0;text-anchor:middle;fill:#000;fill-opacity:1;stroke:none;stroke-width:.64663309px;stroke-linecap:butt;stroke-linejoin:miter;stroke-opacity:1"><path id="path5165" d="m 22.696138,269.43533 v -17.07111 h 5.173065 v 6.59566 h 7.500943 v -6.59566 h 5.173064 v 17.07111 h -5.173064 v -7.37161 h -7.500943 v 7.37161 z" style="fill:#000;fill-opacity:1;stroke-width:.64663309px"/><path id="path5167" d="M 44.166376,265.91765 V 255.8819 q 0,-3.51768 4.397105,-3.51768 h 9.052862 q 4.397105,0 4.397105,3.51768 v 10.03575 q 0,3.51768 -4.397105,3.51768 h -9.052862 q -4.397105,0 -4.397105,-3.51768 z m 5.173064,-0.31038 q 0,0.72422 0.905287,0.72422 h 5.69037 q 0.905287,0 0.905287,-0.72422 v -9.41498 q 0,-0.72423 -0.905287,-0.72423 h -5.69037 q -0.905287,0 -0.905287,0.72423 z" style="fill:#000;fill-opacity:1;stroke-width:.64663309px"/><path id="path5169" d="m 65.636614,269.43533 v -17.07111 h 6.337004 l 5.302391,11.92391 5.302391,-11.92391 h 6.337004 v 17.07111 h -5.173065 v -9.00113 l -4.009125,9.00113 h -4.914411 l -4.009125,-9.00113 v 9.00113 z" style="fill:#000;fill-opacity:1;stroke-width:.64663309px"/><path id="path5171" d="m 92.5123,269.43533 v -17.07111 h 16.55381 v 3.10384 H 97.685365 v 3.49182 h 10.087475 v 3.10384 H 97.685365 v 4.26777 h 11.380745 v 3.10384 z" style="fill:#000;fill-opacity:1;stroke-width:.64663309px"/></g></g></svg>