<svg xmlns="http://www.w3.org/2000/svg" xmlns:svg="http://www.w3.org/2000/svg" id="svg8" width="500" height="500" version="1.1" viewBox="0 0 132.292 132.292"><metadata id="metadata5"/><g id="layer1" transform="translate(0,-164.70832)"><path id="rect6446" d="M 55.599609 159.62695 C 30.386175 159.62695 10.087891 179.92524 10.087891 205.13867 L 10.087891 294.86133 C 10.087891 320.07476 30.386175 340.37305 55.599609 340.37305 L 444.40039 340.37305 C 469.61382 340.37305 489.91211 320.07476 489.91211 294.86133 L 489.91211 205.13867 C 489.91211 179.92524 469.61382 159.62695 444.40039 159.62695 L 55.599609 159.62695 z M 143.07227 188.85742 L 180.12891 188.85742 L 180.12891 288.9082 L 256.09375 288.9082 L 256.09375 311.14258 L 143.07227 311.14258 L 143.07227 188.85742 z M 286.51953 188.85742 L 356.92773 188.85742 L 356.92773 311.14258 L 319.87109 311.14258 L 319.87109 211.0918 L 286.51953 211.0918 L 286.51953 188.85742 z" transform="matrix(0.26458333,0,0,0.26458333,0,164.70832)" style="opacity:1;fill:#000;fill-opacity:1;stroke:none;stroke-width:24.3262291;stroke-linecap:square;stroke-linejoin:round;stroke-miterlimit:4.30000019;stroke-dasharray:none;stroke-opacity:1;paint-order:markers stroke fill"/></g></svg>