<svg xmlns="http://www.w3.org/2000/svg" xmlns:svg="http://www.w3.org/2000/svg" id="svg8" width="500" height="500" version="1.1" viewBox="0 0 132.292 132.292"><metadata id="metadata5"/><g id="layer1" transform="translate(0,-164.70832)"><path id="rect6526" d="M 143.17578 11.439453 C 122.5267 11.439453 105.90234 26.22701 105.90234 44.595703 L 105.90234 419.92969 C 138.2277 508.74972 360.8659 514.08762 394.09766 419.92969 L 394.09766 44.595703 C 394.09766 26.22701 377.47334 11.439453 356.82422 11.439453 L 143.17578 11.439453 z M 128.71289 188.85742 L 165.76953 188.85742 L 165.76953 288.9082 L 241.73438 288.9082 L 241.73438 311.14258 L 128.71289 311.14258 L 128.71289 188.85742 z M 265.67578 188.85742 L 339.78906 188.85742 C 360.7875 188.85742 371.28711 197.25594 371.28711 214.05469 L 371.28711 233.13867 C 371.28711 249.93742 360.7875 258.33789 339.78906 258.33789 L 299.95312 258.33789 C 295.62992 258.33789 293.46875 260.06682 293.46875 263.52539 L 293.46875 288.9082 L 371.28711 288.9082 L 371.28711 311.14258 L 256.41211 311.14258 L 256.41211 261.30273 C 256.41211 244.50398 266.91172 236.10352 287.91016 236.10352 L 327.74609 236.10352 C 332.0693 236.10352 334.23047 234.37458 334.23047 230.91602 L 334.23047 216.2793 C 334.23047 212.82073 332.0693 211.0918 327.74609 211.0918 L 265.67578 211.0918 L 265.67578 188.85742 z" transform="matrix(0.26458333,0,0,0.26458333,0,164.70832)" style="opacity:1;fill:#000;fill-opacity:1;stroke:none;stroke-width:22.25533295;stroke-linecap:square;stroke-linejoin:round;stroke-miterlimit:4.30000019;stroke-dasharray:none;stroke-opacity:1;paint-order:markers stroke fill"/></g></svg>