<svg xmlns="http://www.w3.org/2000/svg" xmlns:svg="http://www.w3.org/2000/svg" id="svg8" width="500" height="500" version="1.1" viewBox="0 0 132.292 132.292"><metadata id="metadata5"/><g id="layer1" transform="translate(0,-164.70832)"><path style="opacity:1;fill:#000;fill-opacity:1;stroke:none;stroke-width:24.3262;stroke-linecap:square;stroke-linejoin:round;stroke-miterlimit:4.3;stroke-dasharray:none;stroke-opacity:1;paint-order:markers stroke fill" id="rect6446" d="m 55.599609,159.62695 c -25.213434,0 -45.511718,20.29829 -45.511718,45.51172 v 89.72266 c 0,25.21343 20.298284,45.51172 45.511718,45.51172 H 444.40039 c 25.21343,0 45.51172,-20.29829 45.51172,-45.51172 v -89.72266 c 0,-25.21343 -20.29829,-45.51172 -45.51172,-45.51172 z M 194.75,188.85742 h 90.78711 c 20.99844,0 31.49805,8.39852 31.49805,25.19727 V 239.625 c 0,14.82243 -8.33844,23.22094 -25.01368,25.19727 l 30.57227,46.32031 h -40.02148 l -30.57032,-46.32031 h -20.19531 v 46.32031 H 194.75 Z m 37.05664,22.23438 v 31.49609 h 41.6875 c 4.32321,0 6.48438,-1.72893 6.48438,-5.1875 V 216.2793 c 0,-3.45857 -2.16117,-5.1875 -6.48438,-5.1875 z" transform="matrix(0.26458333,0,0,0.26458333,0,164.70832)"/></g></svg>