<svg xmlns="http://www.w3.org/2000/svg" xmlns:svg="http://www.w3.org/2000/svg" id="svg8" width="500" height="500" version="1.1" viewBox="0 0 132.292 132.292"><metadata id="metadata5"/><g id="layer1" transform="translate(0,-164.70832)"><path id="rect6446" d="M 55.599609 159.62695 C 30.386175 159.62695 10.087891 179.92524 10.087891 205.13867 L 10.087891 294.86133 C 10.087891 320.07476 30.386175 340.37305 55.599609 340.37305 L 444.40039 340.37305 C 469.61382 340.37305 489.91211 320.07476 489.91211 294.86133 L 489.91211 205.13867 C 489.91211 179.92524 469.61382 159.62695 444.40039 159.62695 L 55.599609 159.62695 z M 134.75 188.85742 L 225.53711 188.85742 C 246.53555 188.85742 257.03516 197.25594 257.03516 214.05469 L 257.03516 239.625 C 257.03516 254.44743 248.69672 262.84594 232.02148 264.82227 L 262.59375 311.14258 L 222.57227 311.14258 L 192.00195 264.82227 L 171.80664 264.82227 L 171.80664 311.14258 L 134.75 311.14258 L 134.75 188.85742 z M 294.84375 188.85742 L 365.25 188.85742 L 365.25 311.14258 L 328.19336 311.14258 L 328.19336 211.0918 L 294.84375 211.0918 L 294.84375 188.85742 z M 171.80664 211.0918 L 171.80664 242.58789 L 213.49414 242.58789 C 217.81735 242.58789 219.97852 240.85896 219.97852 237.40039 L 219.97852 216.2793 C 219.97852 212.82073 217.81735 211.0918 213.49414 211.0918 L 171.80664 211.0918 z" transform="matrix(0.26458333,0,0,0.26458333,0,164.70832)" style="opacity:1;fill:#000;fill-opacity:1;stroke:none;stroke-width:24.3262291;stroke-linecap:square;stroke-linejoin:round;stroke-miterlimit:4.30000019;stroke-dasharray:none;stroke-opacity:1;paint-order:markers stroke fill"/></g></svg>