<svg xmlns="http://www.w3.org/2000/svg" xmlns:svg="http://www.w3.org/2000/svg" id="svg8" width="500" height="500" version="1.1" viewBox="0 0 132.292 132.292"><metadata id="metadata5"/><g id="layer1" transform="translate(0,-164.70832)"><path id="rect6526" d="M 143.17578 11.439453 C 122.5267 11.439453 105.90234 26.22701 105.90234 44.595703 L 105.90234 419.92969 C 138.2277 508.74972 360.8659 514.08762 394.09766 419.92969 L 394.09766 44.595703 C 394.09766 26.22701 377.47334 11.439453 356.82422 11.439453 L 143.17578 11.439453 z M 120.39062 188.85742 L 211.17773 188.85742 C 232.17617 188.85742 242.67578 197.25594 242.67578 214.05469 L 242.67578 239.625 C 242.67578 254.44743 234.33734 262.84594 217.66211 264.82227 L 248.23438 311.14258 L 208.21289 311.14258 L 177.64258 264.82227 L 157.44727 264.82227 L 157.44727 311.14258 L 120.39062 311.14258 L 120.39062 188.85742 z M 274 188.85742 L 348.11133 188.85742 C 369.10977 188.85742 379.60938 197.25594 379.60938 214.05469 L 379.60938 233.13867 C 379.60938 249.93742 369.10977 258.33789 348.11133 258.33789 L 308.27734 258.33789 C 303.95414 258.33789 301.79102 260.06682 301.79102 263.52539 L 301.79102 288.9082 L 379.60938 288.9082 L 379.60938 311.14258 L 264.73633 311.14258 L 264.73633 261.30273 C 264.73633 244.50398 275.23398 236.10352 296.23242 236.10352 L 336.06836 236.10352 C 340.39157 236.10352 342.55273 234.37458 342.55273 230.91602 L 342.55273 216.2793 C 342.55273 212.82073 340.39157 211.0918 336.06836 211.0918 L 274 211.0918 L 274 188.85742 z M 157.44727 211.0918 L 157.44727 242.58789 L 199.13477 242.58789 C 203.45797 242.58789 205.61914 240.85896 205.61914 237.40039 L 205.61914 216.2793 C 205.61914 212.82073 203.45797 211.0918 199.13477 211.0918 L 157.44727 211.0918 z" transform="matrix(0.26458333,0,0,0.26458333,0,164.70832)" style="opacity:1;fill:#000;fill-opacity:1;stroke:none;stroke-width:22.25533295;stroke-linecap:square;stroke-linejoin:round;stroke-miterlimit:4.30000019;stroke-dasharray:none;stroke-opacity:1;paint-order:markers stroke fill"/></g></svg>