<svg xmlns="http://www.w3.org/2000/svg" xmlns:svg="http://www.w3.org/2000/svg" id="svg8" width="500" height="500" version="1.1" viewBox="0 0 132.292 132.292"><defs id="defs2"><rect id="rect67611" width="532.736" height="267.394" x="143.072" y="188.857"/></defs><metadata id="metadata5"/><g id="layer1" transform="translate(0,-164.70832)"><path id="rect6446" d="m 55.599609,159.62695 c -25.213432,0 -45.511718,20.29829 -45.511718,45.51172 v 89.72266 c 0,25.21343 20.298286,45.51172 45.511718,45.51172 H 444.40039 c 25.21343,0 45.51172,-20.29829 45.51172,-45.51172 v -89.72266 c 0,-25.21343 -20.29829,-45.51172 -45.51172,-45.51172 z m 54.240231,27.01367 h 94.08008 c 21.76,0 32.64063,8.70333 32.64063,26.11133 v 26.4961 c 0,15.36 -8.63993,24.06333 -25.91993,26.11133 l 31.67969,48 h -41.47265 l -31.67969,-48 h -20.92774 v 48 h -38.40039 z m 151.67969,0 h 94.08008 c 21.76,0 32.64062,8.70333 32.64062,26.11133 v 11.13672 c 0,10.752 -4.16046,18.17549 -12.48046,22.27149 9.6,3.84 14.40039,11.58442 14.40039,23.23242 v 17.85547 c 0,17.408 -10.88063,26.11133 -32.64063,26.11133 h -96 z m -113.2793,23.03907 v 32.64062 h 43.19922 c 4.48,0 6.72071,-1.79295 6.72071,-5.37695 v -21.88672 c 0,-3.584 -2.24071,-5.37695 -6.72071,-5.37695 z m 151.67969,0 v 25.91992 h 43.19922 c 4.48,0 6.7207,-1.791 6.7207,-5.375 v -15.16797 c 0,-3.584 -2.2407,-5.37695 -6.7207,-5.37695 z m 0,48.96093 v 31.67969 h 45.11914 c 4.48,0 6.72071,-1.79295 6.72071,-5.37695 v -20.92774 c 0,-3.58399 -2.24071,-5.375 -6.72071,-5.375 z" transform="matrix(0.26458333,0,0,0.26458333,0,164.70832)" style="display:inline;opacity:1;fill:#000;fill-opacity:1;stroke:none;stroke-width:24.3262;stroke-linecap:square;stroke-linejoin:round;stroke-miterlimit:4.3;stroke-dasharray:none;stroke-opacity:1;paint-order:markers stroke fill"/></g></svg>