<svg xmlns="http://www.w3.org/2000/svg" xmlns:svg="http://www.w3.org/2000/svg" id="svg8" width="500" height="500" version="1.1" viewBox="0 0 132.292 132.292"><defs id="defs2"><rect id="rect100091" width="372.493" height="217.33" x="62.373" y="154.083"/></defs><metadata id="metadata5"/><g id="layer1" transform="translate(0,-164.70832)"><path id="rect6526" d="m 143.17578,11.439453 c -20.64908,0 -37.27344,14.787557 -37.27344,33.15625 V 419.92969 c 32.32536,88.82003 254.96356,94.15793 288.19532,0 V 44.595703 c 0,-18.368693 -16.62432,-33.15625 -37.27344,-33.15625 z M 114.36133,189.51172 h 89.81445 c 20.77347,0 31.16016,8.31091 31.16016,24.92969 v 25.29492 c 0,14.66362 -8.24756,22.97258 -24.74414,24.92773 l 30.24414,45.82422 h -39.5918 L 171,264.66406 h -19.97852 v 45.82422 h -36.66015 z m 135.63867,0 h 135.63867 v 21.99609 h -49.49023 v 98.98047 H 299.49023 V 211.50781 H 250 Z m -98.97852,21.99609 v 31.16016 h 41.24024 c 4.27689,0 6.41601,-1.7113 6.41601,-5.13281 v -20.89454 c 0,-3.42151 -2.13912,-5.13281 -6.41601,-5.13281 z" transform="matrix(0.26458333,0,0,0.26458333,0,164.70832)" style="opacity:1;fill:#000;fill-opacity:1;stroke:none;stroke-width:22.2553;stroke-linecap:square;stroke-linejoin:round;stroke-miterlimit:4.3;stroke-dasharray:none;stroke-opacity:1;paint-order:markers stroke fill"/></g></svg>