<svg xmlns="http://www.w3.org/2000/svg" xmlns:svg="http://www.w3.org/2000/svg" id="svg8" width="500" height="500" version="1.1" viewBox="0 0 132.292 132.292"><metadata id="metadata5"/><g id="layer1" transform="translate(0,-164.70832)"><path id="rect5066" d="m 47.894531,104.18164 c -16.29098,0 -29.40625,13.11527 -29.40625,29.40625 v 143.34375 c 0,16.29098 13.11527,29.40625 29.40625,29.40625 H 452.10547 c 16.29098,0 29.40625,-13.11527 29.40625,-29.40625 V 133.58789 c 0,-16.29098 -13.11527,-29.40625 -29.40625,-29.40625 z" transform="matrix(0.26458333,0,0,0.26458333,0,164.70832)" style="opacity:1;fill:#000;fill-opacity:1;stroke:none;stroke-width:23.1266613;stroke-linecap:square;stroke-linejoin:round;stroke-miterlimit:4.30000019;stroke-dasharray:none;stroke-opacity:1;paint-order:markers stroke fill"/><g id="text5070" aria-label="SELECT" style="font-style:normal;font-variant:normal;font-weight:700;font-stretch:normal;font-size:25.86532211px;line-height:16.1658268px;font-family:Xolonium;-inkscape-font-specification:'Xolonium Bold';text-align:center;letter-spacing:0;word-spacing:0;text-anchor:middle;fill:#000;fill-opacity:1;stroke:none;stroke-width:.64663309px;stroke-linecap:butt;stroke-linejoin:miter;stroke-opacity:1"><path id="path6396" d="m 8.4944598,269.43533 v -3.10384 H 19.487222 q 0.905286,0 0.905286,-0.72422 v -2.81932 q 0,-0.72423 -0.905286,-0.72423 h -6.595657 q -4.3971052,0 -4.3971052,-3.51769 v -2.66413 q 0,-3.51768 4.3971052,-3.51768 h 11.380741 v 3.10384 H 14.57281 q -0.905286,0 -0.905286,0.72423 v 2.04336 q 0,0.72423 0.905286,0.72423 h 6.595658 q 4.397104,0 4.397104,3.51768 v 3.44009 q 0,3.51768 -4.397104,3.51768 z" style="fill:#000;fill-opacity:1;stroke-width:.64663309px"/><path id="path6398" d="m 28.909878,269.43533 v -17.07111 h 16.553806 v 3.10384 H 34.082942 v 3.49182 h 10.087476 v 3.10384 H 34.082942 v 4.26777 h 11.380742 v 3.10384 z" style="fill:#000;fill-opacity:1;stroke-width:.64663309px"/><path id="path6400" d="m 48.561463,269.43533 v -17.07111 h 5.173064 v 13.96727 h 10.604782 v 3.10384 z" style="fill:#000;fill-opacity:1;stroke-width:.64663309px"/><path id="path6402" d="m 66.64698,269.43533 v -17.07111 h 16.553807 v 3.10384 H 71.820045 v 3.49182 h 10.087476 v 3.10384 H 71.820045 v 4.26777 h 11.380742 v 3.10384 z" style="fill:#000;fill-opacity:1;stroke-width:.64663309px"/><path id="path6404" d="M 86.298561,265.91765 V 255.8819 q 0,-3.51768 4.397105,-3.51768 h 12.156704 v 3.10384 H 92.376912 q -0.905286,0 -0.905286,0.72423 v 9.41498 q 0,0.72422 0.905286,0.72422 h 10.475458 v 3.10384 H 90.695666 q -4.397105,0 -4.397105,-3.51768 z" style="fill:#000;fill-opacity:1;stroke-width:.64663309px"/><path id="path6406" d="m 104.65688,255.46806 v -3.10384 h 19.14033 v 3.10384 h -6.98363 v 13.96727 h -5.17307 v -13.96727 z" style="fill:#000;fill-opacity:1;stroke-width:.64663309px"/></g></g></svg>