<svg xmlns="http://www.w3.org/2000/svg" xmlns:svg="http://www.w3.org/2000/svg" id="svg8" width="500" height="500" version="1.1" viewBox="0 0 132.292 132.292"><defs id="defs2"><rect id="rect5337" width="468.162" height="102.723" x="18.92" y="-58.63"/></defs><metadata id="metadata5"/><g id="layer1" transform="translate(0,-164.70832)"><path id="path1226" d="m 20.521988,195.96812 c -9.076016,0 -16.4943879,7.41838 -16.4943879,16.49439 v 36.54971 c 0,9.07601 7.4183679,16.49439 16.4943879,16.49439 h 91.248662 c 9.07603,0 16.49496,-7.41838 16.49496,-16.49439 v -36.54971 c 0,-9.07601 -7.41894,-16.49439 -16.49496,-16.49439 z m 3.893404,9.66062 h 83.460698 c 1.76824,0 3.19159,1.42334 3.19159,3.19159 0,1.76823 -1.42335,3.19159 -3.19159,3.19159 H 24.415392 c -1.768234,0 -3.191589,-1.42336 -3.191589,-3.19159 0,-1.76825 1.423355,-3.19159 3.191589,-3.19159 z" style="color:#000;fill:#000;fill-opacity:1;stroke-width:1.11502;-inkscape-stroke:none"/></g></svg>