<svg xmlns="http://www.w3.org/2000/svg" xmlns:svg="http://www.w3.org/2000/svg" id="svg8" width="500" height="500" version="1.1" viewBox="0 0 132.292 132.292"><defs id="defs2"><rect id="rect4624" width="292.553" height="254.211" x="101.544" y="165.719"/></defs><metadata id="metadata5"/><g id="layer1" transform="translate(0,-164.70832)"><path id="rect6526" d="m 143.17578,11.439453 c -20.64908,0 -37.27344,14.787557 -37.27344,33.15625 V 419.92969 c 32.32536,88.82003 254.96356,94.15793 288.19532,0 V 44.595703 c 0,-18.368693 -16.62432,-33.15625 -37.27344,-33.15625 z M 119.05273,188.85742 h 119.59961 v 22.66992 l -76.35937,77.2793 h 78.19922 v 22.33594 h -123.2793 v -22.33594 l 76.35938,-77.2793 h -74.51954 z m 141.33789,0 h 90.78711 c 20.99844,0 31.49805,8.39852 31.49805,25.19727 V 239.625 c 0,14.82243 -8.33844,23.22094 -25.01367,25.19727 l 30.57227,46.32031 h -40.02149 l -30.57031,-46.32031 h -20.19531 v 46.32031 h -37.05665 z m 37.05665,22.23438 v 31.49609 h 41.6875 c 4.3232,0 6.48437,-1.72893 6.48437,-5.1875 V 216.2793 c 0,-3.45857 -2.16117,-5.1875 -6.48437,-5.1875 z" transform="matrix(0.26458333,0,0,0.26458333,0,164.70832)" style="display:inline;opacity:1;fill:#000;fill-opacity:1;stroke:none;stroke-width:22.2553;stroke-linecap:square;stroke-linejoin:round;stroke-miterlimit:4.3;stroke-dasharray:none;stroke-opacity:1;paint-order:markers stroke fill"/></g></svg>