<svg xmlns="http://www.w3.org/2000/svg" xmlns:svg="http://www.w3.org/2000/svg" id="svg8" width="500" height="500" version="1.1" viewBox="0 0 132.292 132.292"><metadata id="metadata5"/><g id="layer1" transform="translate(0,-164.70832)"><path id="rect1792" d="m 245.95898,31.433594 c -64.56896,0.09978 -115.94335,3.235843 -115.94336,73.001956 v 235.55859 c 10e-6,71.22856 53.51262,128.57227 119.98438,128.57227 66.47176,0 119.98438,-57.34371 119.98438,-128.57227 V 104.43555 c 0,-69.766113 -51.37441,-72.902252 -115.94336,-73.001956 V 65.6875 h 5.97265 c 4.60112,0 8.30469,3.705519 8.30469,8.306641 v 55.109379 c 0,4.60112 -3.70357,8.30468 -8.30469,8.30468 h -5.97265 v 83.78321 h -8.08204 V 137.4082 h -5.97265 c -4.60112,0 -8.30469,-3.70356 -8.30469,-8.30468 V 73.994141 c 0,-4.601122 3.70357,-8.306641 8.30469,-8.306641 h 5.97265 z" transform="matrix(0.26458333,0,0,0.26458333,0,164.70832)" style="opacity:1;fill:#000;fill-opacity:1;stroke:none;stroke-width:18.25572205;stroke-linecap:square;stroke-linejoin:round;stroke-miterlimit:4.30000019;stroke-dasharray:none;stroke-opacity:1;paint-order:markers stroke fill"/></g></svg>