<svg xmlns="http://www.w3.org/2000/svg" xmlns:svg="http://www.w3.org/2000/svg" id="svg8" width="500" height="500" version="1.1" viewBox="0 0 132.292 132.292"><metadata id="metadata5"/><g id="layer1" transform="translate(0,-164.70832)"><path id="rect1792" d="m 67.215019,173.02512 c 17.083868,0.0264 30.676678,0.85615 30.67668,19.31511 v 62.32487 c -2e-6,18.84589 -14.158547,34.01808 -31.745867,34.01808 -17.587319,0 -31.745866,-15.17219 -31.745866,-34.01808 v -62.32487 c 0,-18.45896 13.592815,-19.28873 30.67668,-19.31511 v 9.06302 h -1.580264 c -1.217379,0 -2.197282,0.98042 -2.197282,2.1978 v 14.58102 c 0,1.21738 0.979903,2.19728 2.197282,2.19728 h 1.580264 v 22.16764 h 2.138373 28.265456 v -29.14964 c 0,-17.4044 -12.524272,-18.18692 -28.265456,-18.21181 z m 0.499711,10.26553 c 1.311325,0 2.36678,1.05597 2.36678,2.3673 v 11.82253 c 0,1.31132 -1.055455,2.36678 -2.36678,2.36678 h -3.137795 c -1.311325,0 -2.36678,-1.05546 -2.36678,-2.36678 v -11.82253 c 0,-1.31133 1.055455,-2.3673 2.36678,-2.3673 z" style="opacity:1;fill:#000;fill-opacity:1;stroke:none;stroke-width:4.83015966;stroke-linecap:square;stroke-linejoin:round;stroke-miterlimit:4.30000019;stroke-dasharray:none;stroke-opacity:1;paint-order:markers stroke fill"/></g></svg>